<svg xmlns="http://www.w3.org/2000/svg" width="123.687" height="41.280" viewBox="0 0 123.687 41.280" fill="none">
  <path d="M 119.555 36.986 L 119.402 36.884 C 117.759 35.796 116.12 34.71 114.382 33.76 C 108.409 30.492 101.509 28.36 94.673 28.268 C 94.387 28.264 94.111 28.374 93.905 28.574 C 93.7 28.774 93.582 29.046 93.577 29.333 C 93.574 29.619 93.684 29.895 93.884 30.101 C 94.084 30.306 94.357 30.424 94.643 30.428 C 101.13 30.512 107.676 32.553 113.343 35.654 C 115.06 36.594 116.68 37.669 118.304 38.746 C 119.107 39.279 119.911 39.812 120.728 40.33 L 120.897 40.44 C 121.237 40.664 121.955 41.136 122.166 41.208 C 122.777 41.419 123.166 41.117 123.328 40.954 C 123.464 40.819 123.596 40.625 123.659 40.344 C 123.709 40.112 123.701 39.65 123.558 39.035 C 123.262 37.735 122.416 35.355 121.817 33.669 C 121.508 32.799 121.264 32.113 121.195 31.855 C 119.139 24.178 118.347 16.668 117.525 8.883 C 117.415 7.835 117.304 6.783 117.189 5.723 C 117.157 5.438 117.014 5.178 116.791 4.998 C 116.567 4.819 116.282 4.735 115.997 4.765 C 115.856 4.78 115.72 4.823 115.595 4.891 C 115.471 4.959 115.361 5.051 115.272 5.162 C 115.184 5.272 115.117 5.399 115.078 5.535 C 115.038 5.671 115.026 5.814 115.041 5.955 C 115.151 6.976 115.259 7.993 115.366 9.005 C 116.092 15.878 116.796 22.537 118.333 29.276 C 108.588 12.307 90.308 7.209 71.719 8.726 C 53.469 10.213 34.962 18.112 24.129 27.229 C 24.661 26.239 25.115 25.383 25.352 24.929 C 25.717 24.227 26.275 23.287 26.928 22.185 C 28.844 18.955 31.583 14.335 32.728 10.229 C 33.901 6.029 33.413 2.352 29.662 0.627 C 26.252 -0.94 22.22 0.541 18.264 3.843 C 9.749 10.953 1.362 26.358 0.032 31.665 C -0.002 31.802 -0.009 31.945 0.012 32.086 C 0.033 32.226 0.081 32.361 0.154 32.482 C 0.227 32.604 0.323 32.71 0.437 32.794 C 0.551 32.879 0.68 32.94 0.818 32.974 C 0.955 33.009 1.098 33.016 1.239 32.995 C 1.379 32.974 1.514 32.926 1.635 32.853 C 1.757 32.78 1.863 32.684 1.947 32.57 C 2.032 32.456 2.093 32.326 2.127 32.189 C 3.405 27.096 11.475 12.324 19.649 5.499 C 22.844 2.832 26.005 1.323 28.759 2.589 C 31.478 3.838 31.497 6.604 30.647 9.649 C 29.539 13.627 26.873 18.089 25 21.224 C 24.35 22.313 23.795 23.241 23.434 23.934 C 23.144 24.492 22.564 25.559 21.911 26.759 C 20.591 29.188 18.971 32.164 18.857 32.576 C 18.642 33.347 19.151 33.716 19.327 33.826 C 19.463 33.91 20.171 34.286 20.802 33.535 C 29.802 22.811 51.04 12.578 71.892 10.877 C 91.858 9.249 111.52 15.491 119.555 36.986 Z" fill="currentColor" fill-rule="evenodd"></path>
</svg>