<svg xmlns="http://www.w3.org/2000/svg" width="15.533" height="10.355" viewBox="0 0 15.533 10.355" fill="none">
  <path d="M 16.579 1.046 C 17.157 0.468 17.157 -0.468 16.579 -1.046 C 16.001 -1.624 15.065 -1.624 14.487 -1.046 L 15.533 0 L 16.579 1.046 Z M 5.178 10.355 L 4.132 11.401 C 4.709 11.979 5.646 11.979 6.224 11.401 L 5.178 10.355 Z M 1.046 4.132 C 0.468 3.554 -0.468 3.554 -1.046 4.132 C -1.624 4.709 -1.624 5.646 -1.046 6.224 L 0 5.178 L 1.046 4.132 Z M 15.533 0 L 14.487 -1.046 L 4.132 9.309 L 5.178 10.355 L 6.224 11.401 L 16.579 1.046 L 15.533 0 Z M 5.178 10.355 L 6.224 9.309 L 1.046 4.132 L 0 5.178 L -1.046 6.224 L 4.132 11.401 L 5.178 10.355 Z" fill="currentColor" fill-rule="nonzero"></path>
</svg>