<svg width="16" height="16" viewBox="0 0 16 16" fill="none" xmlns="http://www.w3.org/2000/svg">
<g clip-path="url(#clip0_69_8406)">
<g clip-path="url(#clip1_69_8406)">
<g clip-path="url(#clip2_69_8406)">
<mask id="mask0_69_8406" style="mask-type:luminance" maskUnits="userSpaceOnUse" x="0" y="0" width="16" height="16">
<path d="M0 0H16V16H0V0Z" fill="white"/>
</mask>
<g mask="url(#mask0_69_8406)">
<path d="M12.3062 4.10286C12.8777 4.10286 13.1638 4.10286 13.4028 4.14094C14.0446 4.24256 14.6378 4.54477 15.0973 5.00425C15.5568 5.46373 15.859 6.05689 15.9606 6.6987C15.9984 6.93774 15.9984 7.2235 15.9984 7.79534V10.4619C15.9984 12.7694 15.9984 13.9233 15.4108 14.732C15.221 14.9932 14.9912 15.2229 14.7299 15.4126C13.9212 16.0005 12.7673 16.0005 10.4598 16.0005H7.79356C7.41641 16.0005 7.04297 15.9262 6.69454 15.7818C6.34611 15.6375 6.02952 15.4259 5.76286 15.1593C5.49619 14.8926 5.28467 14.5759 5.14038 14.2275C4.99608 13.8791 4.92183 13.5056 4.92188 13.1285H6.39836C8.8598 13.1285 10.0905 13.1285 10.9532 12.5019C11.2319 12.2994 11.4769 12.0542 11.6793 11.7755C12.3062 10.9131 12.3062 9.68238 12.3062 7.22094V4.10254V4.10286Z" fill="#05080C"/>
<path d="M11.0768 5.53856C11.0768 3.23104 11.0768 2.07712 10.4893 1.26848C10.2995 1.0072 10.0698 0.777403 9.80864 0.58752C8.99968 0 7.84608 0 5.53856 0C3.23104 0 2.0768 0 1.26848 0.58752C1.00716 0.777357 0.777357 1.00716 0.58752 1.26848C0 2.0768 0 3.23104 0 5.53856V6.35904C0 8.66624 0 9.82016 0.58752 10.6291C0.777374 10.8903 1.00718 11.12 1.26848 11.3098C2.07712 11.8973 3.23104 11.8973 5.53856 11.8973H7.01536C8.70752 11.8973 9.5536 11.8973 10.1469 11.4666C10.3385 11.3274 10.5069 11.1589 10.6461 10.9674C11.0768 10.3741 11.0768 9.528 11.0768 7.83584V5.53824V5.53856Z" fill="#05080C"/>
</g>
</g>
</g>
</g>
<defs>
<clipPath id="clip0_69_8406">
<rect width="16" height="16" fill="white"/>
</clipPath>
<clipPath id="clip1_69_8406">
<rect width="16" height="16" fill="white"/>
</clipPath>
<clipPath id="clip2_69_8406">
<rect width="16" height="16" fill="white"/>
</clipPath>
</defs>
</svg>
