<svg xmlns="http://www.w3.org/2000/svg" width="253.858" height="62.225" viewBox="0 0 253.858 62.225" fill="none">
  <path d="M 63.286 0 L 62.932 -0.354 L 37.476 25.102 L 37.83 25.456 L 38.184 25.81 L 63.64 0.354 L 63.286 0 Z M 26.517 36.77 L 26.163 36.416 L 0.706 61.871 L 1.06 62.225 L 1.414 62.579 L 26.871 37.124 L 26.517 36.77 Z M 62.224 62.225 L 62.578 61.871 L 37.124 36.416 L 36.77 36.77 L 36.416 37.124 L 61.87 62.579 L 62.224 62.225 Z M 25.456 25.456 L 25.81 25.102 L 0.354 -0.354 L 0 0 L -0.354 0.354 L 25.102 25.81 L 25.456 25.456 Z M 158.572 0 L 158.218 -0.354 L 132.762 25.102 L 133.116 25.456 L 133.47 25.81 L 158.926 0.354 L 158.572 0 Z M 121.803 36.77 L 121.449 36.416 L 95.993 61.871 L 96.347 62.225 L 96.701 62.579 L 122.157 37.124 L 121.803 36.77 Z M 157.511 62.225 L 157.865 61.871 L 132.41 36.416 L 132.056 36.77 L 131.702 37.124 L 157.157 62.579 L 157.511 62.225 Z M 120.742 25.456 L 121.096 25.102 L 95.64 -0.354 L 95.286 0 L 94.932 0.354 L 120.388 25.81 L 120.742 25.456 Z M 253.858 0 L 253.504 -0.354 L 228.048 25.102 L 228.402 25.456 L 228.756 25.81 L 254.212 0.354 L 253.858 0 Z M 217.089 36.77 L 216.735 36.416 L 191.279 61.871 L 191.633 62.225 L 191.987 62.579 L 217.443 37.124 L 217.089 36.77 Z M 252.798 62.225 L 253.152 61.871 L 227.696 36.416 L 227.342 36.77 L 226.988 37.124 L 252.444 62.579 L 252.798 62.225 Z M 216.028 25.456 L 216.382 25.102 L 190.926 -0.354 L 190.572 0 L 190.218 0.354 L 215.674 25.81 L 216.028 25.456 Z" fill="currentColor" fill-rule="nonzero"></path>
</svg>