<svg width="8" height="8" viewBox="0 0 8 8" fill="none" xmlns="http://www.w3.org/2000/svg">
<path d="M5.9679 0.244611C6.03973 0.168683 6.12602 0.107922 6.22174 0.0659192C6.31741 0.0239164 6.42059 0.00152696 6.52508 7.59227e-05C6.62958 -0.00138063 6.7333 0.0181339 6.83019 0.0574553C6.92701 0.0967822 7.01496 0.155116 7.08889 0.22902C7.16276 0.302923 7.22108 0.39089 7.26042 0.487728C7.29976 0.584562 7.31929 0.688297 7.3178 0.792804C7.31636 0.897306 7.29397 1.00046 7.25198 1.09618C7.20999 1.19185 7.14919 1.27819 7.07328 1.34997L4.78224 3.64106C4.77921 3.6441 4.77678 3.64768 4.77512 3.65166C4.77352 3.65557 4.77264 3.65982 4.77264 3.66413C4.77264 3.66843 4.77352 3.67262 4.77512 3.6766C4.77678 3.68057 4.77921 3.68415 4.78224 3.68719L7.07328 5.97822C7.14688 6.05061 7.20541 6.13684 7.24547 6.23196C7.28558 6.32708 7.30643 6.4292 7.30688 6.53243C7.30732 6.63566 7.28729 6.73795 7.24801 6.8334C7.20872 6.92884 7.1509 7.01552 7.07791 7.08851C7.00497 7.16156 6.91824 7.21938 6.82279 7.25866C6.72734 7.298 6.62511 7.31803 6.52188 7.31764C6.41865 7.3172 6.31653 7.29635 6.22141 7.25629C6.1263 7.21624 6.04001 7.1577 5.96762 7.08415L3.67659 4.79312C3.67355 4.79009 3.66996 4.78766 3.66599 4.786C3.66202 4.78435 3.65777 4.78352 3.65352 4.78352C3.64922 4.78352 3.64497 4.78435 3.641 4.786C3.63708 4.78766 3.63344 4.79009 3.63046 4.79312L1.33938 7.08415C1.267 7.15775 1.18077 7.21629 1.08565 7.25635C0.990539 7.29646 0.888425 7.31731 0.785203 7.31775C0.681987 7.3182 0.579703 7.29817 0.484254 7.25888C0.388806 7.2196 0.302081 7.16178 0.229088 7.08879C0.156089 7.0158 0.0982627 6.92912 0.0589469 6.83367C0.019631 6.73822 -0.000402159 6.63593 6.11701e-06 6.53276C0.000414393 6.42953 0.0212531 6.32741 0.0613249 6.23229C0.101397 6.13717 0.159907 6.05088 0.233474 5.9785L2.52453 3.68746C2.52756 3.68443 2.52999 3.68084 2.53159 3.67687C2.53325 3.6729 2.53408 3.66865 2.53408 3.6644C2.53408 3.6601 2.53325 3.65585 2.53159 3.65188C2.52999 3.64796 2.52756 3.64432 2.52453 3.64134L0.233474 1.35025C0.0887896 1.20322 0.00806124 1.00499 0.00887779 0.798714C0.00969434 0.592441 0.0919897 0.394841 0.237833 0.248965C0.383675 0.103083 0.581253 0.0207491 0.787526 0.0198829C0.993805 0.0190167 1.19207 0.0997007 1.33912 0.244352L3.63019 2.53541C3.63322 2.53844 3.63681 2.54087 3.64078 2.54247C3.6447 2.54413 3.64894 2.54495 3.65325 2.54495C3.65755 2.54495 3.6618 2.54413 3.66572 2.54247C3.66969 2.54087 3.67328 2.53844 3.67631 2.53541L5.9679 0.244611Z" fill="white"/>
</svg>
