<svg width="30" height="27" viewBox="0 0 30 27" fill="none" xmlns="http://www.w3.org/2000/svg">
<path d="M28.961 22.5176L17.0562 1.38426C16.0411 -0.461418 13.2726 -0.461418 12.2574 1.38426L0.352644 22.5176C-0.662464 24.3632 0.629521 26.6704 2.75207 26.6704H26.4693C28.6842 26.5781 29.9761 24.3632 28.961 22.5176Z" fill="#E24C4B"/>
<path d="M14.0352 3.86768C14.3071 3.38489 15.0023 3.38489 15.2743 3.86768L25.9623 22.841C26.2294 23.315 25.8869 23.9011 25.3428 23.9011H3.96676C3.42269 23.9011 3.08015 23.315 3.34719 22.841L14.0352 3.86768Z" fill="#FF4E4D"/>
<path d="M12.7184 12.4582L13.4567 17.3494C13.549 17.903 14.0104 18.3645 14.6564 18.3645C15.2101 18.3645 15.7639 17.903 15.8561 17.3494L16.5944 12.4582C16.779 11.2585 15.8561 10.2434 14.6564 10.2434C13.4567 10.2433 12.6261 11.2585 12.7184 12.4582Z" fill="white"/>
<path d="M14.6543 21.5953C15.2659 21.5953 15.7618 21.0994 15.7618 20.4878C15.7618 19.8762 15.2659 19.3804 14.6543 19.3804C14.0427 19.3804 13.5469 19.8762 13.5469 20.4878C13.5469 21.0994 14.0427 21.5953 14.6543 21.5953Z" fill="white"/>
</svg>
