<svg width="7" height="7" viewBox="0 0 7 7" fill="none" xmlns="http://www.w3.org/2000/svg">
<path d="M4.1323 1.55587L1.99964 1.46369C1.80582 1.45539 1.61897 1.37037 1.48019 1.22733C1.34142 1.08429 1.26209 0.894947 1.25966 0.700958C1.25722 0.506969 1.33188 0.324223 1.46722 0.192922C1.60255 0.0616198 1.78746 -0.00748111 1.98129 0.000819395L5.87869 0.168647C5.97469 0.17275 6.06999 0.195746 6.15915 0.236321C6.2483 0.276896 6.32956 0.334255 6.39828 0.40512C6.467 0.475984 6.52183 0.558966 6.55965 0.649324C6.59747 0.73968 6.61753 0.835643 6.61868 0.931725L6.66703 4.83212C6.66822 4.92819 6.65048 5.02251 6.61484 5.10969C6.5792 5.19687 6.52635 5.27521 6.4593 5.34022C6.39226 5.40523 6.31234 5.45565 6.22411 5.4886C6.13588 5.52155 6.04106 5.53638 5.94506 5.53224C5.84907 5.52811 5.75378 5.50509 5.66464 5.46451C5.5755 5.42392 5.49426 5.36656 5.42554 5.2957C5.35683 5.22485 5.30199 5.14188 5.26417 5.05153C5.22634 4.96119 5.20626 4.86524 5.20508 4.76916L5.17846 2.63468L1.25388 6.44049C1.11852 6.57175 0.933604 6.6408 0.739799 6.63245C0.545993 6.62411 0.359176 6.53905 0.220447 6.39599C0.0817169 6.25293 0.00243797 6.06359 5.02996e-05 5.86962C-0.00233753 5.67565 0.0723615 5.49294 0.207714 5.36168L4.1323 1.55587Z" fill="#08FD19"/>
</svg>
