<svg id="Layer_1" data-name="Layer 1" xmlns="http://www.w3.org/2000/svg" viewBox="0 0 1000 1000"><defs><style>.cls-1{font-size:48.86px;font-family:FugazOne-Regular, Fugaz One;}</style></defs><title>sdwe logo final black</title><path d="M376.77,451.12a20.52,20.52,0,0,0-9.94-4.82,26.36,26.36,0,0,0-5.08-.51l-12.75,0v.06l-29.54,0H276.13c20,14.31,20.15,29.82,20.15,29.82l.06,0h7.29v0h30.45c5.17,0,10.36,0,15.54,0v-.07c4.44.14,8.88.28,13.33.21a23.18,23.18,0,0,0,9.69-1.85C380.58,470.26,383.35,457.39,376.77,451.12Z"/><text class="cls-1" transform="translate(73.14 586.13)">SANDIEGO WEBSITE EXPERTS</text><path d="M152.21,429.34h99.4l34.11-37H150.21c-40.14,0-59.9,14.65-59.9,44,0,11,3.33,20.12,9.61,27.08,7.52,10.09,22,15.61,42.51,15.61h76.89c9.13,0,12.94,2.76,11.9,9.34-1,6.38-5.49,9.14-14.41,9.14H108.06l-34.1,37h147c39.51,0,57.35-14.23,57.35-45.45,0-10.49-2.84-19-8.37-25.59-7.06-10.29-21.57-15.62-43.11-15.62H149.28c-9.13,0-12.91-3-11.9-9.34C138.36,432.31,143.08,429.34,152.21,429.34Z"/><path d="M481.2,451.11c-.24-34.91-29.89-58.73-75.41-58.73H304.31l-34.17,37h124.4c25.7,0,41.63,12.53,41.63,32.71q0,.69,0,1.38c-4.06,22.05-20.36,34.09-47,34.09H343.35V482.58H297.08a3.15,3.15,0,0,1-.71-.08l-8.24,52H394.54c40.49,0,72.41-21.13,82.34-51.79v0c4.23-7.44,4.32-31.61,4.32-31.61Z"/><path d="M662.17,392.74l-1.92,27.49q-.32,4.09-.61,8.19l-.14,1.9c-.08,1-.15,1.93-.22,2.89q-2,27-4,54h0l-1,15.92-13.11-6.3,0,0-3.2-1.5h0l-18.87-8.88c.84-10.74,1.68-21.08,2.45-31.42.27-3.66.53-7.31.79-11L626,392.74H582.73q-1,11.37-1.86,22.71l0,.2c-1.82,23.69-3.29,47.33-5,71.06L552,497h0l-9.16,4,0,0-4.68,2,1.32-17.17h0c.21-3,.43-6,.67-9.05l.22-2.87c1-12.29,2-24.58,3-36.88l.07-.88c.06-.72.12-1.44.17-2.16a0,0,0,0,0,0,0l3.09-41.25H500.54l-5.07,68.12q-1.14,15.17-2.24,30.33c-.45,6.32-.72,12.68-.65,19,.1,8,4.18,14,10.64,18.47a30.13,30.13,0,0,0,17.48,5.12c11.81,0,23.63-.15,35.44,0a23.2,23.2,0,0,0,13-3.59c8.73-5.29,17.7-10.18,26.86-15.39,9.43,5.45,18.78,10.73,28,16.25a18.57,18.57,0,0,0,9.91,2.9l15.79,0,15.79.06,4.89,0c1.17,0,2.34.06,3.5,0a17.37,17.37,0,0,0,3.36-.66,29.86,29.86,0,0,0,5.58-2.13,31.11,31.11,0,0,0,6.83-4.57c.34-.3.67-.6,1-.92,5.38-4.77,8.92-10.72,9.62-18.32,1.07-11.58,1.84-23.19,2.74-34.78q1.74-22.2,3.48-44.4l3-35.57Z"/><path d="M891.71,501.62h0q-15.56-.08-31.11-.08h-1.14c-30.55,0-61.15,0-92.12-.24.56-7.83,1.06-14.93,1.61-22.61h37.49l0,.05h27.82L864,446.92h-2.23l0,0c-6.32-.07-12.63-.14-18.95-.15q-31.94-.06-63.88-.06h-8.34l.46-6.19h0c.4-5.36.79-10.57,1.2-16.1H864l29.5-31.53H727.64c-1.75,23.09-3.55,45.89-5.19,68.7-1.54,21.45-3.06,42.89-5.2,64l-.9,8.74h5.76c45.48-.07,91-.35,136.45-.54H864l29.81-32.11Z"/></svg>