<svg xmlns="http://www.w3.org/2000/svg" width="33.752" height="40.501" viewBox="0 0 33.752 40.501" fill="none">
  <path d="M 33.257 18.07 C 33.101 18.227 32.915 18.352 32.71 18.437 C 32.505 18.521 32.285 18.565 32.063 18.565 C 31.842 18.565 31.622 18.521 31.417 18.437 C 31.212 18.352 31.026 18.227 30.87 18.07 L 18.563 5.762 L 18.563 38.814 C 18.563 39.261 18.386 39.691 18.069 40.007 C 17.753 40.324 17.323 40.501 16.876 40.501 C 16.428 40.501 15.999 40.324 15.683 40.007 C 15.366 39.691 15.188 39.261 15.188 38.814 L 15.188 5.762 L 2.882 18.07 C 2.566 18.387 2.136 18.565 1.688 18.565 C 1.241 18.565 0.811 18.387 0.495 18.07 C 0.178 17.754 0 17.324 0 16.876 C 0 16.429 0.178 15.999 0.495 15.682 L 15.682 0.495 C 15.839 0.338 16.025 0.214 16.23 0.129 C 16.435 0.044 16.654 0 16.876 0 C 17.098 0 17.317 0.044 17.522 0.129 C 17.727 0.214 17.913 0.338 18.07 0.495 L 33.257 15.682 C 33.414 15.839 33.539 16.025 33.624 16.23 C 33.709 16.435 33.752 16.655 33.752 16.876 C 33.752 17.098 33.709 17.318 33.624 17.523 C 33.539 17.727 33.414 17.914 33.257 18.07 Z" fill="currentColor" fill-rule="nonzero"></path>
</svg>