<svg viewBox="0 0 273.36 39.05" xmlns="http://www.w3.org/2000/svg"><g fill="#040707"><path d="m33.7 17.4c-1.8-11.07-12.08-15.21-22.29-14.7-3.34.17-6.82.39-10.15.64-.26.02-1.07.02-1.07.37.01.6 2.98.12 3.33 2.65.15 1.06.23 2.89.28 4.03.28 6.81.38 15.48 0 22.25-.05.89-.23 3.07-.62 3.69-.82 1.26-2.15.81-3 1.32-.36.22-.13.49.16.57 1.53.4 5.29-.09 7.17.02 1.72.1 3.6.61 5.27.72 12.72.84 23.04-8.49 20.92-21.56zm-6.13 11.93c-2.5 5.95-9.22 10.41-15.76 8.21-3.39-1.14-3.51-3.88-3.7-7.06-.45-7.17-.5-15.32 0-22.47.2-2.85-.81-3.92 2.83-4.36 14.06-1.7 21.62 13.82 16.64 25.68z"/><path d="m73.7 38.25c-.18-.04-.5-.42-.12-.6 2.4-.46 2.7-.96 2.89-3.34.22-2.83.35-9.5-.03-12.18-.22-1.55-1.13-1.41-1.9-2.53 1.2.18 4.58-2.17 5.17-2.16 1.06.01.42 2.85.59 3.59 3.94-3.25 9.78-5.14 12.84.24 1.92-1.23 3.72-3.07 6.09-3.48 10.15-1.75 7.64 10.94 8.16 16.99.06.71.16 1.67.71 2.16.64.58 1.91.32 1.94 1.3h-9.11c-.27-1.1.99-.79 1.77-1.23.38-.21.79-.59.87-1.05-.39-3.83.98-11.54-1.33-14.68-1.98-2.69-8.29-1.42-8.72 1.56.58 3.86-.47 9.76.51 13.31.46 1.65 1.99.77 2.34 2.09h-9.11c.18-1.25 2.4-.65 2.63-2.04-.27-3.83.38-8.18 0-11.95-.4-3.98-4.09-5.23-7.49-3.64-2.31 1.08-2.23 2.76-2.35 5.06-.14 2.5-.02 6.83.28 9.31.16 1.34.4 1.92 1.66 2.42.68.27 1.14-.23.96.83h-9.23z"/><path d="m138.09 0v36.22c0 1.09 1.92 1.14 2.4 1.43.4.24-.03.6-.12.6h-9.23c-.01-.96 1.27-.68 1.91-1.09.52-.33.87-1.32.95-1.92.14-1.02.22-2.71.27-3.79.41-8.97.07-18.05.24-27.03-.03-1.38-1.41-1.72-2.16-2.62l5.75-1.79z"/><path d="m161.23 35.87c-.51-.02-3.11 1.85-3.66-.66-1.07-4.78 3.03-19.38-6.54-17.41-1.72.35-6.72 3.63-7.14 5.32-.38 1.52 2.69.16 3.08-.29.62-.7-.28-2.55 1.98-3.28 2.46-.8 4.43.4 4.91 2.86.17.93.35 4.93-.24 5.5-.66.65-6.44 1.89-7.92 2.75-4.23 2.46-1.54 8.59 3.24 8.01 1.81-.23 3.38-1.3 4.62-2.57 1.29 3.08 5.07 3.84 7.32 1.32.17-.19 1.03-1.54.35-1.55zm-7.66-1.19c-.81 3.08-7.24 2.27-6.31-2.23.45-2.18 4.75-3.16 6.66-3.52-.04 1.84.13 3.96-.35 5.75z"/><path d="m130.06 35.87c-1.41 1.06-3.35.91-3.86-.95-.41-4.12 1.73-14.05-2.34-16.56-2.86-1.76-6.52.14-8.8 2.08-1.15.97-4.5 4.65-.55 3.03.21-.08 1.42-.73 1.47-.81.17-.31-.05-1.15.23-1.8.88-2.13 4.75-1.96 5.91-.04.67 1.09.98 5.9.4 6.81-1.31 2.02-9.9 1.36-10.11 6.19-.24 5.74 7 6.12 9.97 2.28 1.33 3.02 4.59 3.85 7.05 1.53.2-.19 1.41-1.75.63-1.76zm-7.58-1.58c-.65 3.47-7.3 2.98-6.4-1.84.41-2.21 4.71-3.25 6.66-3.52.19.18-.13 4.69-.26 5.36z"/><path d="m55.47 34.43c-.7.42-1.18.96-2.04 1.31-4.79 1.95-9.68-.58-11.1-5.43-.36-1.25-.9-5.8.3-6.53.42-.25 7.17-.15 8.29-.12 2.54.07 5.69 1.55 3.95-2.51-1.29-3.03-5.25-3.82-8.21-3.4-12.95 1.87-10.07 25.42 4.43 20.67 1.04-.34 4.99-2.84 4.97-3.88 0-.38-.27-.3-.59-.11zm-5.47-15.59c1.7.87 2.44 4.11.43 4.11h-7.55c.29-3.01 4.2-5.61 7.12-4.11z"/><path d="m247.93 34.19c-.93.28-1.46 1.16-2.4 1.55-2.48 1.04-5.88.77-8.09-.78-3.05-2.15-4.94-7.98-2.7-11.17l12.37-.1c.82-1.39-.75-3.67-1.94-4.56-4.46-3.35-11.45-.75-13.67 4.06-2.15 4.68-1.38 11.58 3.31 14.39 3.24 1.94 7.63 1.85 10.7-.42.43-.32 2.82-2.52 2.42-2.97zm-11.52-14.23c1.43-1.31 3.47-1.99 5.34-1.25 2.02.8 2.6 4.24.78 4.24-1.58 0-6.3.31-7.43 0-1.01-.28.9-2.62 1.31-2.99z"/><path d="m188.94 32.87c.32 2.94 2.22 4.08 5.14 3.68.96-.13 1.64-.86 2.54-.81-.7 1.97-3.95 3.03-5.88 3-4.09-.07-5.41-2.71-5.64-6.34-.25-3.87.2-8.02.02-11.93-.48-.64-2.5-.22-2.17-1.23.05-.15 2.2-1.13 2.76-1.56.7-.54 2.39-2.65 2.89-2.86s.34.33.36.59c.04.52-.2 2.75.36 2.75h6.72c.61 0 .42 2.15-.24 2.15h-6.84c.32 3.99-.43 8.64 0 12.55z"/><path d="m181.02 34.19c-.57 2.66-4.41 4.45-6.9 4.71-11.31 1.18-14.88-13.83-5.64-19.49 2.89-1.77 9.06-2.82 11.7-.28 1.04 1 .33 2.54-.73 2.64-.8.07-3.42-2.77-4.84-3.07-8.46-1.75-10.39 13.38-3.27 16.89 3.11 1.53 7.15.95 9.68-1.41z"/><path d="m63.97 17.46c.34.24-.18 3.38.01 4.05.29.33 2.73-2.45 3.13-2.73.36-.26 1.68-.95 2.08-1.04 2.4-.5 4.8.74 2.56 3.03-1.55 1.58-2.22-.19-3.92-.35-1.48-.13-3.29 1.28-3.55 2.7-.34 1.87-.25 11.03.24 12.8.44 1.58 1.96 1.34 3.17 1.62.99.23.75.84-.22.96s-1.9-.23-2.88-.26c-2.38-.07-4.72.13-7.09.25.16-1.1 1.57-.83 2.29-1.66.92-1.06.5-2.89.59-4.2.24-3.64.32-7.32.23-10.99-.18-.94-2.02-1.69-1.91-2.15.56-.44 5.01-2.2 5.26-2.02z"/><path d="m229.71 18.17c.04.74-1.13.72-1.8 1.19-.4.28-.86.85-1.12 1.27l-8.23 18.34c-.45.03-.56-.41-.72-.72-1.1-2.21-2.08-5.93-3.06-8.43-.77-1.95-3.49-9.59-4.89-10.42-.68-.4-1.98-.31-2-1.23.37-.32 4.37.26 5.16.26.63 0 3.67-.56 3.96-.26.24 1.04-.53.63-1.27 1.01-.83.43-.73 1.07-.59 1.92.35 2.17 2.88 7.98 3.91 10.21.26.56.5 1.36 1.07 1.68l5-12.37c.28-2.1-1.96-1.05-2.35-2.45h6.95z"/><path d="m262.02 18.22c.28.23.83 4.02.18 4-.28 0-.96-2.21-1.55-2.76-2.84-2.66-7.55-.06-5.81 3.88.99 2.25 3.65 3.12 5.43 4.62 6.74 5.67.07 12.53-7.25 10.58-3.38-.9-2.59-2.21-2.69-5.33 1.02.65 1 1.87 1.79 2.87 3.11 3.98 8.88 1.2 7.27-3.18-.93-2.54-5.5-3.97-7.19-6.7-2.2-3.56.19-7.75 4.11-8.43 1.08-.18 4.94-.22 5.71.43z"/><path d="m198.05 38.25c.12-1.09 1.78-.63 2.38-1.58 1.38-2.19 0-12.22.5-15.27-.17-1.07-1.88-.89-1.91-2.03 1.48-.04 4.21-1.85 5.39-1.93.55-.03.36.19.38.61.23 5.19-.71 11.19-.25 16.49.08.91.17 2.13.97 2.61.09.06 2.86 1.09 1.3 1.09h-8.75z"/></g><path d="m202.54 8.18c2.95-.67 3.25 3.5 1.09 3.97-2.87.62-3.31-3.46-1.09-3.97z" fill="#060909"/><path d="m269.04 15.54c1.43-.71 1.6 1.56 2.04 1.67.47.12.34-.21.5-.45.62-.91.37-1.48 1.78-1.23v4.54c-1.62.52-.65-2.86-1.08-2.87-.31.21-.8 1.63-.96 1.68-.59.16-.82-1.57-1.31-1.67-.16 1.04.58 3.06-.96 2.87v-4.54z" fill="#0a0c0c"/><path d="m268.08 15.54c.4 1.29-1.44.85-1.44.96v3.59s-.96.05-.96 0v-3.59c0-.11-1.84.34-1.44-.96z" fill="#131515"/></svg>