<svg xmlns="http://www.w3.org/2000/svg" xmlns:xlink="http://www.w3.org/1999/xlink" id="Layer_1" x="0px" y="0px" viewBox="0 0 1080 183" style="enable-background:new 0 0 1080 183;" xml:space="preserve"><style type="text/css">	.st0{fill:#00000;}</style><g>	<path class="st0" d="M1055.1,41.6c-0.5,1.3-0.9,2.6-1.5,3.8c-3,6.1-10.1,9.4-16.8,8.1c-5.3-1.1-9.4-3.8-11.9-8.8  c-3.9-7.9-0.2-17.6,8-21.3c5.1-2.3,10.2-2.2,15,0.8c3.3,2,5.5,5,6.6,8.7c0.1,0.4,0.3,0.8,0.5,1.2  C1055.1,36.6,1055.1,39.1,1055.1,41.6z M1052.2,37.9c0-6.8-4.7-13.2-12.6-13.1c-7.2,0.1-13.2,6.1-13.1,13.5  c0,7.1,5.9,12.6,13.3,12.6C1047.4,50.9,1052.2,45,1052.2,37.9z"></path>	<path class="st0" d="M189.8,22.6c1.6,0,2.9,0,4.2,0c1.6,0,3.1,0,4.7,0c0.9,0,1.4,0.4,1.3,1.3c0,0.4,0,0.7,0,1.1  c0,45.2,0,90.4,0,135.6c0,2.9,0,2.7-2.8,2.9c-1.9,0.1-3.1-0.6-4.3-2c-19.2-22.1-38.4-44.1-57.6-66.1  c-12.3-14.1-24.6-28.2-36.9-42.3c-0.5-0.5-1-1-1.5-1.4c-0.1,0.1-0.3,0.1-0.4,0.2c-0.1,0.7-0.2,1.4-0.2,2.1c0,34.4,0,68.8,0,103.2  c0,3.4-0.1,3-3.1,3c-1.9,0-3.9,0-5.8,0c-1.3,0-1.5-0.3-1.6-1.5c0-0.4,0-0.9,0-1.3c0-44.1,0-88.3,0-132.4c0-0.3,0-0.6,0-0.9  c0.1-1.2,0.2-1.4,1.4-1.5c3.5,0,7,0,10.5,0c1,0,1.6,0.6,2.2,1.2c4.6,5.2,9.2,10.3,13.8,15.5c15.6,17.4,31.2,34.8,46.8,52.3  c9.1,10.2,18.2,20.4,27.3,30.5c0.4,0.5,1,0.8,1.8,1.5c0.1-1.2,0.2-1.8,0.2-2.4c0-6.5,0-13,0-19.5c0-25.6,0-51.1,0-76.7  C189.8,24.3,189.8,23.6,189.8,22.6z"></path>	<path class="st0" d="M582.3,51.9c0,0.7-0.1,1.4-0.1,2.1c0,34.4,0,68.7,0,103.1c0,3.5-0.1,3.1-3.2,3.1c-1.9,0-3.7,0-5.6,0  c-1.4,0-1.6-0.2-1.7-1.6c0-0.3,0-0.6,0-0.9c0-44.3,0-88.5,0-132.8c0-0.4,0-0.7,0-1.1c0-0.8,0.4-1.1,1.2-1.1c0.7,0,1.5,0,2.2,0  c2.6,0,5.2,0.1,7.9,0c1.2,0,2.1,0.4,2.9,1.3c7.7,8.6,15.4,17.2,23.1,25.8c19.2,21.4,38.3,42.8,57.5,64.3c2.4,2.7,4.8,5.4,7.2,8.1  c0.4,0.5,1,0.8,1.7,1.4c0.2-0.8,0.3-1.1,0.3-1.5c0-0.7,0-1.5,0-2.2c0-31.5,0-63,0-94.5c0-0.7,0-1.5,0-2.2c0.6-0.2,0.9-0.3,1.3-0.3  c2.5,0,5,0,7.5,0c1.2,0,1.4,0.2,1.4,1.4c0,0.3,0,0.6,0,0.9c0,45.3,0,90.5,0,135.8c0,2.7,0,2.6-2.7,2.8c-1.9,0.1-3.2-0.6-4.5-2  c-18.7-21.5-37.4-43-56.2-64.4c-12.8-14.7-25.6-29.3-38.4-44c-0.4-0.5-0.9-0.9-1.4-1.4C582.7,51.8,582.5,51.9,582.3,51.9z"></path>	<path class="st0" d="M855.9,128.3c-1.4,2-2.7,4-4,5.8c-7.2,9.9-16.1,17.8-27.3,23c-8.1,3.8-16.7,5.8-25.6,6.3  c-8,0.5-15.9-0.1-23.8-1.8c-13.8-3-25.9-9.2-36.1-19c-8.3-8-14.1-17.5-17.6-28.5c-3.4-10.4-4.3-21-2.8-31.8  c2.3-17.1,9.9-31.5,22.7-43.1c8.1-7.4,17.6-12.7,28.1-15.9c4.7-1.4,9.5-2.4,14.4-3.1c5.8-0.9,11.6-0.9,17.4-0.5  c6,0.4,11.8,1.8,17.4,3.9c9.8,3.7,18.4,9.1,25.7,16.6c4,4.1,7.6,8.6,10.7,13.4c0.2,0.4,0.4,0.8,0.7,1.3c-3.1,2.3-6.4,4.3-9.8,6.6  c-0.5-0.7-0.9-1.3-1.2-1.9c-3.6-6.6-7.7-12.8-13.1-18.1c-5.4-5.3-11.8-9-19.1-10.8c-3.2-0.8-6.4-1.1-9.6-1.2  c-12.4-0.2-23.8,3.1-33.9,10.4c-8.5,6.1-14.5,14.2-18.5,23.7c-4.9,11.6-6.1,23.7-5,36.1c0.7,8.3,2.8,16.2,6.4,23.7  c5.9,12.2,15.1,21,27.7,26.1c8.2,3.3,16.7,4.7,25.5,4c6.1-0.4,11.8-2.7,17-5.8c9.7-5.7,17.2-13.7,22.8-23.5  c1.4-2.4,1.3-2.4,3.7-0.9c1.9,1.2,3.9,2.5,5.8,3.7C854.8,127.4,855.3,127.8,855.9,128.3z"></path>	<path class="st0" d="M994.5,22.7c3.5,0,6.7,0,10,0c0,0.7,0.1,1.3,0.1,1.9c0,29.6,0.1,59.2,0,88.8c0,10.2-2.6,19.7-8.5,28.2  c-5,7.2-11.7,12.2-19.6,15.7c-8.1,3.6-16.6,5.2-25.4,5.8c-7.4,0.5-14.7,0.3-22-1.2c-14.2-2.8-26.3-9.3-34.7-21.5  c-4.1-5.9-6.5-12.4-7.7-19.5c-0.6-3.6-0.8-7.3-0.8-11c0-28.4,0-56.9,0-85.3c0-0.4,0-0.9,0-1.3c0-0.6,0.4-0.9,0.9-0.9  c0.4,0,0.7,0,1.1,0c6.3,0,12.6,0,18.9,0c0.4,0,0.7,0,1.1,0c0.7,0,1,0.4,1,1.1c0,0.6,0,1.1,0,1.7c0,28.9,0,57.7,0,86.6  c0,9.3,2.4,18,7.9,25.6c5.6,7.7,13,12.7,22.2,15.3c7.8,2.2,15.7,2.4,23.5,0.5c13.8-3.3,23.5-11.6,28.7-24.9c2-5.1,3-10.4,3-15.9  c0-17.7,0-35.4,0-53.1c0-11.5,0-23.1,0-34.6C994.5,24.2,994.5,23.6,994.5,22.7z"></path>	<path class="st0" d="M355.9,159.9c0-0.3-0.1-0.6,0-0.8c21.9-46.5,43.8-93,65.7-139.5c2,0,3.9,0,6,0c10.7,23.4,21.4,46.7,32.2,70.1  c10.7,23.3,21.5,46.7,32.3,70.3c-0.9,0.2-1.3,0.3-1.8,0.3c-6.7,0-13.4,0-20,0c-1.3,0-1.9-0.6-2.4-1.6c-3-6.6-6-13.3-9.1-19.9  c-3.4-7.5-6.9-15.1-10.3-22.6c-0.6-1.2-1.3-1.7-2.7-1.7c-18.4,0-36.8,0-55.2,0c-1.4,0-2.1,0.5-2.7,1.7  c-6.5,13.9-13.1,27.8-19.7,41.8c-0.2,0.5-0.4,1-0.7,1.3c-0.4,0.4-0.9,1-1.4,1c-3.2,0.1-6.5,0-9.7,0  C356.2,160.2,356.1,160.1,355.9,159.9z M418.8,51.8c-0.2,0-0.4,0-0.5,0c-0.3,0.5-0.6,0.9-0.8,1.4c-2.3,4.8-4.5,9.6-6.8,14.4  c-5.7,12.1-11.4,24.1-17.1,36.2c-0.2,0.4-0.3,0.9-0.4,1.6c1,0,1.7,0.1,2.4,0.1c7.7,0,15.3,0,23,0c7.4,0,14.8,0,22.3,0  c0.7,0,1.4-0.1,2.4-0.2C435,87.2,426.9,69.5,418.8,51.8z"></path>	<path class="st0" d="M219.3,22.8c0.7-0.1,1.3-0.1,1.9-0.1c6.8,0,13.6,0,20.4,0c1.3,0,2,0.4,2.6,1.6c8.6,18.1,17.2,36.3,25.8,54.4  c8,16.8,16,33.7,24,50.5c0.4,0.8,0.8,1.6,1.5,2.8c1-2.2,1.8-4,2.6-5.8c6.7-15.2,13.4-30.4,20.1-45.7c7.4-16.7,14.7-33.4,22-50.1  c0.9-2.1,1.8-4.1,2.7-6.2c0.4-1.1,1.1-1.5,2.3-1.5c2.5,0.1,5,0,7.5,0c0.5,0,1,0.1,1.6,0.1c-0.1,0.5,0,0.8-0.2,1.1  c-7.9,17.8-15.8,35.5-23.6,53.3c-7.4,16.7-14.8,33.5-22.2,50.2c-5,11.3-10,22.5-15,33.8c-0.2,0.4-0.4,0.8-0.5,1.2  c-0.3,0.7-0.8,1.1-1.6,1.1c-0.2,0-0.4,0-0.6,0c-5.3-0.1-4,0.7-6.1-3.7c-10-21-20-42-30-62.9c-8.7-18.2-17.4-36.4-26.1-54.7  c-2.9-6.2-5.9-12.4-8.9-18.5C219.4,23.5,219.4,23.3,219.3,22.8z"></path>	<path class="st0" d="M24.9,22.8c0.8-0.1,1.4-0.2,2-0.2c6.5,0,13,0,19.5,0c1.9,0,2,0.1,2,2c0,44.5,0,88.9,0,133.4  c0,2.1-0.1,2.2-2.2,2.3c-6.4,0-12.9,0-19.3,0c-1.8,0-1.9-0.2-2-1.9c0-0.6,0-1.2,0-1.9c0-43.8,0-87.7,0-131.5  C24.9,24.3,24.9,23.6,24.9,22.8z"></path>	<path class="st0" d="M511.2,22.8c7.8,0,15.3,0,22.9,0c0.1,0.5,0.2,0.9,0.2,1.3c0,0.8,0,1.6,0,2.4c0,43.7,0,87.4,0,131.1  c0,0.2,0,0.4,0,0.6c0,2-0.1,2.1-2.1,2.1c-6.3,0-12.6,0-18.9,0c-2.1,0-2.2-0.1-2.2-2.3c0-44.4,0-88.9,0-133.3  C511.1,24.1,511.2,23.6,511.2,22.8z"></path>	<path class="st0" d="M1048.5,46.4c-1.4,0.6-2.7,0.4-3.9,0.3c-0.4,0-0.8-0.5-1.1-0.9c-0.8-1-1.4-2-2.2-3.1c-0.7-1-2.3-1.5-3.3-0.9  c-0.3,0.2-0.5,0.8-0.6,1.2c-0.1,0.6,0,1.2,0,1.9c0,0.5-0.1,1.1-0.1,1.8c-1.5,0-2.9,0-4.4,0c0-5.6,0-11.1,0-16.6  c0.1-0.1,0.2-0.3,0.3-0.3c3,0,6-0.2,8.9,0c2.2,0.1,4.1,1,5.4,3c1.5,2.4,0.9,5.4-1.2,7.3c-0.3,0.3-0.7,0.5-1.1,0.9  c0.6,0.9,1.1,1.8,1.6,2.7C1047.3,44.6,1047.9,45.4,1048.5,46.4z M1037.4,38.1c1.8,0,3.4,0.4,4.8-0.3c0.9-0.4,1.5-1.2,1.4-2.2  c-0.1-1-0.6-1.9-1.6-2.1c-1.2-0.2-2.5-0.3-3.7-0.4c-0.7,0-0.9,0.5-0.9,1.2C1037.4,35.5,1037.4,36.7,1037.4,38.1z"></path></g></svg>