<svg width="165" height="40" viewBox="0 0 1078 563" fill="none" xmlns="http://www.w3.org/2000/svg">
<g clip-path="url(#clip0_57_1381)">
<mask id="mask0_57_1381" style="mask-type:luminance" maskUnits="userSpaceOnUse" x="6" y="318" width="106" height="171">
<path d="M68.0201 385.35C52.7734 379.15 42.6234 373.767 37.5701 369.2C32.5167 364.634 29.9901 358.634 29.9901 351.2C29.8899 347.676 30.5622 344.172 31.9598 340.934C33.3573 337.697 35.4463 334.805 38.0801 332.46C43.4801 327.587 50.4801 325.15 59.0801 325.15C67.9867 325.15 74.7534 326.967 79.3801 330.6C84.0067 334.234 87.8467 340.767 90.9001 350.2C92.2667 354.667 93.3367 357.397 94.1101 358.39C94.5283 358.897 95.0613 359.296 95.6648 359.555C96.2683 359.814 96.9249 359.926 97.5801 359.88C99.2901 359.88 100.41 359.38 100.92 358.39C101.26 357.57 101.44 355.39 101.44 351.94V349.5L101.18 339.33C101.18 333.37 101.007 329.607 100.66 328.04C100.531 327.317 100.23 326.635 99.7831 326.052C99.3359 325.469 98.7553 325.002 98.0901 324.69C94.6701 323.037 89.4034 321.59 82.2901 320.35C75.4599 319.135 68.5374 318.513 61.6001 318.49C45.8334 318.49 32.9401 322.747 22.9201 331.26C12.9001 339.774 7.90006 350.817 7.92006 364.39C7.92006 375.47 11.0901 384.524 17.4301 391.55C23.7701 398.577 35.1667 405.65 51.6201 412.77C65.6601 418.89 75.5967 424.927 81.4301 430.88C84.237 433.668 86.4539 436.992 87.9486 440.655C89.4433 444.318 90.1852 448.245 90.1301 452.2C90.1715 456.203 89.3558 460.169 87.738 463.831C86.1201 467.492 83.7375 470.765 80.7501 473.43C74.7022 479.203 66.6196 482.355 58.2601 482.2C47.9801 482.2 38.7267 478.394 30.5001 470.78C22.2734 463.167 16.8767 453.424 14.3101 441.55C13.8001 438.55 12.5901 437.08 10.7101 437.08C9.92895 436.992 9.14157 437.18 8.48416 437.611C7.82675 438.042 7.34068 438.689 7.11006 439.44C6.59673 441.014 6.34006 445.604 6.34006 453.21L6.09006 465.86C5.97499 468.735 6.23382 471.612 6.86006 474.42C7.24012 475.965 8.14951 477.327 9.43006 478.27C13.5367 481.077 19.9167 483.557 28.5701 485.71C36.3369 487.745 44.3219 488.829 52.3501 488.94C69.3101 488.94 83.4867 483.94 94.8801 473.94C106.273 463.94 111.97 451.494 111.97 436.6C111.97 424.86 108.46 414.937 101.44 406.83C94.4201 398.724 83.2801 391.564 68.0201 385.35Z" fill="white"/>
</mask>
<g mask="url(#mask0_57_1381)">
<path d="M111.97 318.68L6.08008 319.92V318.48H111.97V318.68Z" fill="#000000"/>
<path d="M111.97 320.511L6.08008 321.751V319.921L111.97 318.681V320.511Z" fill="#000000"/>
<path d="M111.97 322.341L6.08008 323.591V321.751L111.97 320.511V322.341Z" fill="#000000"/>
<path d="M111.97 324.181L6.08008 325.421V323.591L111.97 322.341V324.181Z" fill="#000000"/>
<path d="M111.97 326.011L6.08008 327.251V325.421L111.97 324.181V326.011Z" fill="#000000"/>
<path d="M111.97 327.841L6.08008 329.091V327.251L111.97 326.011V327.841Z" fill="#000000"/>
<path d="M111.97 329.671L6.08008 330.921V329.091L111.97 327.841V329.671Z" fill="#000000"/>
<path d="M111.97 331.511L6.08008 332.751V330.921L111.97 329.671V331.511Z" fill="#000000"/>
<path d="M111.97 333.341L6.08008 334.591V332.751L111.97 331.511V333.341Z" fill="#000000"/>
<path d="M111.97 335.171L6.08008 336.421V334.591L111.97 333.341V335.171Z" fill="#000000"/>
<path d="M111.97 337.011L6.08008 338.251V336.421L111.97 335.171V337.011Z" fill="#000000"/>
<path d="M111.97 338.841L6.08008 340.081V338.251L111.97 337.011V338.841Z" fill="#000000"/>
<path d="M111.97 340.671L6.08008 341.921V340.081L111.97 338.841V340.671Z" fill="#000000"/>
<path d="M111.97 342.501L6.08008 343.751V341.921L111.97 340.671V342.501Z" fill="#000000"/>
<path d="M111.97 344.34L6.08008 345.58V343.75L111.97 342.5V344.34Z" fill="#000000"/>
<path d="M111.97 346.171L6.08008 347.421V345.581L111.97 344.341V346.171Z" fill="#000000"/>
<path d="M111.97 348.001L6.08008 349.251V347.421L111.97 346.171V348.001Z" fill="#000000"/>
<path d="M111.97 349.84L6.08008 351.08V349.25L111.97 348V349.84Z" fill="#000000"/>
<path d="M111.97 351.671L6.08008 352.921V351.081L111.97 349.841V351.671Z" fill="#000000"/>
<path d="M111.97 353.501L6.08008 354.751V352.921L111.97 351.671V353.501Z" fill="#000000"/>
<path d="M111.97 355.34L6.08008 356.58V354.75L111.97 353.5V355.34Z" fill="#000000"/>
<path d="M111.97 357.171L6.08008 358.421V356.581L111.97 355.341V357.171Z" fill="#000000"/>
<path d="M111.97 359.001L6.08008 360.251V358.421L111.97 357.171V359.001Z" fill="#000000"/>
<path d="M111.97 360.84L6.08008 362.08V360.25L111.97 359V360.84Z" fill="#000000"/>
<path d="M111.97 362.671L6.08008 363.911V362.081L111.97 360.841V362.671Z" fill="#000000"/>
<path d="M111.97 364.501L6.08008 365.751V363.911L111.97 362.671V364.501Z" fill="#000000"/>
<path d="M111.97 366.33L6.08008 367.58V365.75L111.97 364.5V366.33Z" fill="#000000"/>
<path d="M111.97 368.17L6.08008 369.41V367.58L111.97 366.33V368.17Z" fill="#000000"/>
<path d="M111.97 370.001L6.08008 371.251V369.411L111.97 368.171V370.001Z" fill="#000000"/>
<path d="M111.97 371.83L6.08008 373.08V371.25L111.97 370V371.83Z" fill="#000000"/>
<path d="M111.97 373.67L6.08008 374.91V373.08L111.97 371.83V373.67Z" fill="#000000"/>
<path d="M111.97 375.501L6.08008 376.751V374.911L111.97 373.671V375.501Z" fill="#000000"/>
<path d="M111.97 377.33L6.08008 378.58V376.75L111.97 375.5V377.33Z" fill="#000000"/>
<path d="M111.97 379.17L6.08008 380.41V378.58L111.97 377.33V379.17Z" fill="#000000"/>
<path d="M111.97 381.001L6.08008 382.251V380.411L111.97 379.171V381.001Z" fill="#000000"/>
<path d="M111.97 382.83L6.08008 384.08V382.25L111.97 381V382.83Z" fill="#000000"/>
<path d="M111.97 384.67L6.08008 385.91V384.08L111.97 382.83V384.67Z" fill="#000000"/>
<path d="M111.97 386.501L6.08008 387.741V385.911L111.97 384.671V386.501Z" fill="#000000"/>
<path d="M111.97 388.33L6.08008 389.58V387.74L111.97 386.5V388.33Z" fill="#000000"/>
<path d="M111.97 390.16L6.08008 391.41V389.58L111.97 388.33V390.16Z" fill="#000000"/>
<path d="M111.97 392L6.08008 393.24V391.41L111.97 390.16V392Z" fill="#000000"/>
<path d="M111.97 393.83L6.08008 395.08V393.24L111.97 392V393.83Z" fill="#000000"/>
<path d="M111.97 395.66L6.08008 396.91V395.08L111.97 393.83V395.66Z" fill="#000000"/>
<path d="M111.97 397.5L6.08008 398.74V396.91L111.97 395.66V397.5Z" fill="#000000"/>
<path d="M111.97 399.33L6.08008 400.57V398.74L111.97 397.5V399.33Z" fill="#000000"/>
<path d="M111.97 401.16L6.08008 402.41V400.57L111.97 399.33V401.16Z" fill="#000000"/>
<path d="M111.97 403L6.08008 404.24V402.41L111.97 401.16V403Z" fill="#000000"/>
<path d="M111.97 404.83L6.08008 406.07V404.24L111.97 403V404.83Z" fill="#000000"/>
<path d="M111.97 406.66L6.08008 407.91V406.07L111.97 404.83V406.66Z" fill="#000000"/>
<path d="M111.97 408.5L6.08008 409.74V407.91L111.97 406.66V408.5Z" fill="#000000"/>
<path d="M111.97 410.33L6.08008 411.57V409.74L111.97 408.5V410.33Z" fill="#000000"/>
<path d="M111.97 412.16L6.08008 413.41V411.57L111.97 410.33V412.16Z" fill="#000000"/>
<path d="M111.97 413.99L6.08008 415.24V413.41L111.97 412.16V413.99Z" fill="#000000"/>
<path d="M111.97 415.83L6.08008 417.07V415.24L111.97 413.99V415.83Z" fill="#000000"/>
<path d="M111.97 417.66L6.08008 418.9V417.07L111.97 415.83V417.66Z" fill="#000000"/>
<path d="M111.97 419.49L6.08008 420.74V418.9L111.97 417.66V419.49Z" fill="#000000"/>
<path d="M111.97 421.33L6.08008 422.57V420.74L111.97 419.49V421.33Z" fill="#000000"/>
<path d="M111.97 423.16L6.08008 424.4V422.57L111.97 421.33V423.16Z" fill="#000000"/>
<path d="M111.97 424.99L6.08008 426.24V424.4L111.97 423.16V424.99Z" fill="#000000"/>
<path d="M111.97 426.82L6.08008 428.07V426.24L111.97 424.99V426.82Z" fill="#000000"/>
<path d="M111.97 428.66L6.08008 429.9V428.07L111.97 426.82V428.66Z" fill="#000000"/>
<path d="M111.97 430.49L6.08008 431.74V429.9L111.97 428.66V430.49Z" fill="#000000"/>
<path d="M111.97 432.32L6.08008 433.57V431.74L111.97 430.49V432.32Z" fill="#000000"/>
<path d="M111.97 434.16L6.08008 435.4V433.57L111.97 432.32V434.16Z" fill="#000000"/>
<path d="M111.97 435.99L6.08008 437.24V435.4L111.97 434.16V435.99Z" fill="#000000"/>
<path d="M111.97 437.82L6.08008 439.07V437.24L111.97 435.99V437.82Z" fill="#000000"/>
<path d="M111.97 439.66L6.08008 440.9V439.07L111.97 437.82V439.66Z" fill="#000000"/>
<path d="M111.97 441.49L6.08008 442.74V440.9L111.97 439.66V441.49Z" fill="#000000"/>
<path d="M111.97 443.32L6.08008 444.57V442.74L111.97 441.49V443.32Z" fill="#000000"/>
<path d="M111.97 445.15L6.08008 446.4V444.57L111.97 443.32V445.15Z" fill="#000000"/>
<path d="M111.97 446.99L6.08008 448.23V446.4L111.97 445.15V446.99Z" fill="#000000"/>
<path d="M111.97 448.82L6.08008 450.07V448.23L111.97 446.99V448.82Z" fill="#000000"/>
<path d="M111.97 450.65L6.08008 451.9V450.07L111.97 448.82V450.65Z" fill="#000000"/>
<path d="M111.97 452.49L6.08008 453.73V451.9L111.97 450.65V452.49Z" fill="#000000"/>
<path d="M111.97 454.32L6.08008 455.57V453.73L111.97 452.49V454.32Z" fill="#000000"/>
<path d="M111.97 456.15L6.08008 457.4V455.57L111.97 454.32V456.15Z" fill="#000000"/>
<path d="M111.97 457.99L6.08008 459.23V457.4L111.97 456.15V457.99Z" fill="#000000"/>
<path d="M111.97 459.82L6.08008 461.06V459.23L111.97 457.99V459.82Z" fill="#000000"/>
<path d="M111.97 461.65L6.08008 462.9V461.06L111.97 459.82V461.65Z" fill="#000000"/>
<path d="M111.97 463.49L6.08008 464.73V462.9L111.97 461.65V463.49Z" fill="#000000"/>
<path d="M111.97 465.32L6.08008 466.56V464.73L111.97 463.49V465.32Z" fill="#000000"/>
<path d="M111.97 467.15L6.08008 468.4V466.56L111.97 465.32V467.15Z" fill="#000000"/>
<path d="M111.97 468.99L6.08008 470.23V468.4L111.97 467.15V468.99Z" fill="#000000"/>
<path d="M111.97 470.82L6.08008 472.06V470.23L111.97 468.99V470.82Z" fill="#000000"/>
<path d="M111.97 472.65L6.08008 473.9V472.06L111.97 470.82V472.65Z" fill="#000000"/>
<path d="M111.97 474.48L6.08008 475.73V473.9L111.97 472.65V474.48Z" fill="#000000"/>
<path d="M6.08008 475.73L111.97 474.48V488.93H6.08008V475.73Z" fill="#000000"/>
</g>
<mask id="mask1_57_1381" style="mask-type:luminance" maskUnits="userSpaceOnUse" x="133" y="318" width="488" height="169">
<path d="M616.65 444.57C615.01 444.57 613.55 445.626 612.27 447.74C600.79 466.906 584.017 476.493 561.95 476.5C553.01 476.5 546.81 474.62 543.35 470.86C539.89 467.1 538.157 460.48 538.15 451V346.29C538.15 338.77 539.06 333.77 540.88 331.29C542.7 328.81 546.7 327.583 552.88 327.61C556.88 327.61 559.62 327.25 561.09 326.51C561.743 326.237 562.299 325.775 562.688 325.183C563.076 324.592 563.279 323.897 563.27 323.19C563.27 320.743 561.27 319.516 557.27 319.51H544.75L524.24 320.74L500.44 319.51H487.82C487.195 319.511 486.57 319.551 485.95 319.63C485.72 319.63 485.51 319.63 485.26 319.63L477.26 320.36L463.12 321.08C458.313 320.84 453.833 320.536 449.68 320.17C445.527 319.803 441.69 319.623 438.17 319.63H430.68C425.687 319.63 423.1 320.803 422.92 323.15C422.852 323.889 423.053 324.628 423.487 325.231C423.92 325.834 424.557 326.259 425.28 326.43C426.84 326.9 430.13 327.13 435.12 327.13C442.88 327.13 446.76 329.433 446.76 334.04C446.76 338.32 443.537 344.653 437.09 353.04L403.43 398.67L360.25 342.37C358.454 340.159 356.823 337.819 355.37 335.37C354.77 334.321 354.428 333.146 354.37 331.94C354.37 328.733 357.88 327.126 364.9 327.12C369.71 327.12 373.03 326.82 374.9 326.21C376.77 325.6 377.68 324.47 377.68 322.8C377.68 320.68 374.99 319.62 369.68 319.62L361.08 320.35C359.42 320.35 354.66 320.51 346.8 320.83C338.94 321.15 333.533 321.31 330.58 321.31C324.48 321.31 319.907 321.2 316.86 320.98C315.57 320.88 314.08 320.74 312.41 320.57C311.188 319.8 309.749 319.449 308.31 319.57H298.69L297.69 319.66H295.06C293.8 319.634 292.542 319.779 291.32 320.09C288.12 320.24 284.52 320.31 280.49 320.31H255.91L243.91 319.57C239.99 319.57 237.943 320.903 237.77 323.57C237.77 326.543 241.003 328.03 247.47 328.03C252.323 328.03 255.6 328.363 257.3 329.03C258.077 329.269 258.752 329.761 259.217 330.428C259.683 331.095 259.913 331.898 259.87 332.71C259.87 334.18 258.76 336.23 256.54 338.84C253.266 342.503 249.752 345.944 246.02 349.14L222.61 369.51L213.61 377.51C207.563 382.61 202.447 386.683 198.26 389.73C194.073 392.776 191.523 394.266 190.61 394.2C189.36 394.2 188.74 393.46 188.74 391.97V345.6C188.74 337.993 189.627 332.946 191.4 330.46C193.173 327.973 197.08 326.733 203.12 326.74C207.02 326.74 209.687 326.366 211.12 325.62C211.766 325.334 212.313 324.863 212.692 324.267C213.071 323.671 213.265 322.976 213.25 322.27C213.25 319.79 211.25 318.55 207.39 318.55H202.6L173.84 319.55H151.99L141.34 318.55H139.75C135.85 318.55 133.9 319.79 133.9 322.27C133.9 325.25 137.27 326.74 144.01 326.74C149.69 326.74 153.463 328.026 155.33 330.6C157.2 333.18 158.13 338.19 158.13 345.66V458.92C158.13 466.546 157.24 471.606 155.46 474.1C153.68 476.593 149.863 477.84 144.01 477.84C140.11 477.84 137.44 478.17 136.01 478.84C135.392 479.046 134.855 479.441 134.473 479.968C134.091 480.495 133.884 481.129 133.88 481.78C133.88 483.96 135.83 485.05 139.73 485.05H207.37C211.27 485.05 213.23 483.96 213.23 481.78C213.23 479.173 209.857 477.866 203.11 477.86C197.25 477.86 193.39 476.566 191.53 473.98C189.67 471.393 188.743 466.346 188.75 458.84V412.84C188.75 408.36 189.99 406.03 192.49 405.84C193.563 405.84 196.143 407.84 200.23 411.84L251.98 464.36C254.23 466.86 255.76 468.66 256.54 469.74C257.252 470.63 257.665 471.721 257.72 472.86C257.687 473.576 257.475 474.274 257.103 474.887C256.731 475.5 256.211 476.01 255.59 476.37C254.013 477.414 252.15 477.938 250.26 477.87C244.22 478.363 240.627 478.856 239.48 479.35C238.32 479.85 237.75 480.93 237.75 482.58C237.75 485.06 239.613 486.3 243.34 486.3H253.75L281.45 485.06L310.75 486.27H317.4C323.08 486.27 325.923 484.903 325.93 482.17C325.93 479.62 324.41 478.33 321.4 478.33C315.36 478.33 310.787 477.38 307.68 475.48C304.573 473.58 298.493 468 289.44 458.74L221.75 391.5C220.622 390.397 219.554 389.236 218.55 388.02C218.166 387.426 217.98 386.726 218.02 386.02C218.003 385.649 218.066 385.278 218.204 384.933C218.342 384.589 218.552 384.277 218.82 384.02C220.213 382.644 221.73 381.399 223.35 380.3L256.9 353.01C267.9 343.85 277.307 337.023 285.12 332.53C289.271 330.253 293.807 328.761 298.5 328.13C303.59 328.98 307.44 330.13 310.02 331.71C313.533 333.81 318.34 338.73 324.44 346.47L374.35 409.64C375.967 411.441 376.858 413.779 376.85 416.2V456.62C376.85 464.04 375.927 468.96 374.08 471.38C372.233 473.8 368.26 475.01 362.16 475.01C358.09 475.01 355.32 475.38 353.84 476.1C353.183 476.358 352.62 476.808 352.224 477.391C351.828 477.975 351.617 478.665 351.62 479.37C351.62 481.79 353.62 483 357.72 483H362.72L393.22 481.79L415.4 483H428.15C432.21 483 434.25 481.79 434.25 479.37C434.25 476.47 430.737 475.016 423.71 475.01C417.61 475.01 413.59 473.77 411.65 471.26C409.71 468.75 408.75 463.88 408.75 456.62V409.67C408.678 407.297 409.466 404.977 410.97 403.14L447.57 355.46C455.33 345.126 461.383 338.106 465.73 334.4C469.741 330.841 474.704 328.529 480.01 327.75C482.24 327.43 484.01 327.16 485.49 326.92C487.686 327.47 489.947 327.715 492.21 327.65C498.037 327.65 501.91 328.92 503.83 331.46C505.75 334 506.707 338.943 506.7 346.29V457.86C506.7 465.386 505.79 470.386 503.97 472.86C502.15 475.333 498.23 476.56 492.21 476.54C488.21 476.54 485.46 476.92 484 477.68C483.338 477.97 482.777 478.45 482.387 479.058C481.997 479.667 481.796 480.377 481.81 481.1C481.81 483.626 483.81 484.89 487.81 484.89L492.46 484.15H608.99C613.73 484.15 616.1 482.15 616.1 478.09C616.015 474.724 616.199 471.357 616.65 468.02C617.01 466.02 617.923 461.613 619.39 454.8L620.21 448.73C620.21 445.95 619.02 444.57 616.65 444.57Z" fill="white"/>
</mask>
<g mask="url(#mask1_57_1381)">
<path d="M204.22 318.55L133.88 319.62V318.55H204.22Z" fill="#000000"/>
<path d="M313.66 318.55L133.88 321.29V319.62L204.22 318.55H313.66Z" fill="#000000"/>
<path d="M423.11 318.55L133.88 322.96V321.29L313.66 318.55H423.11Z" fill="#000000"/>
<path d="M532.55 318.55L133.88 324.63V322.96L423.11 318.55H532.55Z" fill="#000000"/>
<path d="M620.2 318.88L133.88 326.31V324.63L532.55 318.55H620.2V318.88Z" fill="#000000"/>
<path d="M620.2 320.55L133.88 327.98V326.31L620.2 318.88V320.55Z" fill="#000000"/>
<path d="M620.2 322.22L133.88 329.65V327.98L620.2 320.55V322.22Z" fill="#000000"/>
<path d="M620.2 323.89L133.88 331.32V329.65L620.2 322.22V323.89Z" fill="#000000"/>
<path d="M620.2 325.56L133.88 332.99V331.32L620.2 323.89V325.56Z" fill="#000000"/>
<path d="M620.2 327.24L133.88 334.66V332.99L620.2 325.56V327.24Z" fill="#000000"/>
<path d="M620.2 328.91L133.88 336.33V334.66L620.2 327.24V328.91Z" fill="#000000"/>
<path d="M620.2 330.58L133.88 338V336.33L620.2 328.91V330.58Z" fill="#000000"/>
<path d="M620.2 332.25L133.88 339.67V338L620.2 330.58V332.25Z" fill="#000000"/>
<path d="M620.2 333.92L133.88 341.34V339.67L620.2 332.25V333.92Z" fill="#000000"/>
<path d="M620.2 335.59L133.88 343.01V341.34L620.2 333.92V335.59Z" fill="#000000"/>
<path d="M620.2 337.26L133.88 344.69V343.01L620.2 335.59V337.26Z" fill="#000000"/>
<path d="M620.2 338.93L133.88 346.36V344.69L620.2 337.26V338.93Z" fill="#000000"/>
<path d="M620.2 340.6L133.88 348.03V346.36L620.2 338.93V340.6Z" fill="#000000"/>
<path d="M620.2 342.27L133.88 349.7V348.03L620.2 340.6V342.27Z" fill="#000000"/>
<path d="M620.2 343.94L133.88 351.37V349.7L620.2 342.27V343.94Z" fill="#000000"/>
<path d="M620.2 345.619L133.88 353.039V351.369L620.2 343.939V345.619Z" fill="#000000"/>
<path d="M620.2 347.29L133.88 354.71V353.04L620.2 345.62V347.29Z" fill="#000000"/>
<path d="M620.2 348.96L133.88 356.38V354.71L620.2 347.29V348.96Z" fill="#000000"/>
<path d="M620.2 350.63L133.88 358.05V356.38L620.2 348.96V350.63Z" fill="#000000"/>
<path d="M620.2 352.3L133.88 359.72V358.05L620.2 350.63V352.3Z" fill="#000000"/>
<path d="M620.2 353.97L133.88 361.39V359.72L620.2 352.3V353.97Z" fill="#000000"/>
<path d="M620.2 355.64L133.88 363.06V361.39L620.2 353.97V355.64Z" fill="#000000"/>
<path d="M620.2 357.31L133.88 364.74V363.06L620.2 355.64V357.31Z" fill="#000000"/>
<path d="M620.2 358.98L133.88 366.41V364.74L620.2 357.31V358.98Z" fill="#000000"/>
<path d="M620.2 360.649L133.88 368.079V366.409L620.2 358.979V360.649Z" fill="#000000"/>
<path d="M620.2 362.319L133.88 369.749V368.079L620.2 360.649V362.319Z" fill="#000000"/>
<path d="M620.2 364L133.88 371.42V369.75L620.2 362.32V364Z" fill="#000000"/>
<path d="M620.2 365.67L133.88 373.09V371.42L620.2 364V365.67Z" fill="#000000"/>
<path d="M620.2 367.34L133.88 374.76V373.09L620.2 365.67V367.34Z" fill="#000000"/>
<path d="M620.2 369.01L133.88 376.43V374.76L620.2 367.34V369.01Z" fill="#000000"/>
<path d="M620.2 370.68L133.88 378.1V376.43L620.2 369.01V370.68Z" fill="#000000"/>
<path d="M620.2 372.35L133.88 379.77V378.1L620.2 370.68V372.35Z" fill="#000000"/>
<path d="M620.2 374.02L133.88 381.44V379.77L620.2 372.35V374.02Z" fill="#000000"/>
<path d="M620.2 375.69L133.88 383.12V381.44L620.2 374.02V375.69Z" fill="#000000"/>
<path d="M620.2 377.359L133.88 384.789V383.119L620.2 375.689V377.359Z" fill="#000000"/>
<path d="M620.2 379.029L133.88 386.459V384.789L620.2 377.359V379.029Z" fill="#000000"/>
<path d="M620.2 380.7L133.88 388.13V386.46L620.2 379.03V380.7Z" fill="#000000"/>
<path d="M620.2 382.38L133.88 389.8V388.13L620.2 380.7V382.38Z" fill="#000000"/>
<path d="M620.2 384.05L133.88 391.47V389.8L620.2 382.38V384.05Z" fill="#000000"/>
<path d="M620.2 385.72L133.88 393.14V391.47L620.2 384.05V385.72Z" fill="#000000"/>
<path d="M620.2 387.39L133.88 394.81V393.14L620.2 385.72V387.39Z" fill="#000000"/>
<path d="M620.2 389.06L133.88 396.48V394.81L620.2 387.39V389.06Z" fill="#000000"/>
<path d="M620.2 390.73L133.88 398.15V396.48L620.2 389.06V390.73Z" fill="#000000"/>
<path d="M620.2 392.399L133.88 399.819V398.149L620.2 390.729V392.399Z" fill="#000000"/>
<path d="M620.2 394.069L133.88 401.499V399.819L620.2 392.399V394.069Z" fill="#000000"/>
<path d="M620.2 395.74L133.88 403.17V401.5L620.2 394.07V395.74Z" fill="#000000"/>
<path d="M620.2 397.41L133.88 404.84V403.17L620.2 395.74V397.41Z" fill="#000000"/>
<path d="M620.2 399.08L133.88 406.51V404.84L620.2 397.41V399.08Z" fill="#000000"/>
<path d="M620.2 400.75L133.88 408.18V406.51L620.2 399.08V400.75Z" fill="#000000"/>
<path d="M620.2 402.43L133.88 409.85V408.18L620.2 400.75V402.43Z" fill="#000000"/>
<path d="M620.2 404.1L133.88 411.52V409.85L620.2 402.43V404.1Z" fill="#000000"/>
<path d="M620.2 405.77L133.88 413.19V411.52L620.2 404.1V405.77Z" fill="#000000"/>
<path d="M620.2 407.44L133.88 414.86V413.19L620.2 405.77V407.44Z" fill="#000000"/>
<path d="M620.2 409.109L133.88 416.529V414.859L620.2 407.439V409.109Z" fill="#000000"/>
<path d="M620.2 410.779L133.88 418.199V416.529L620.2 409.109V410.779Z" fill="#000000"/>
<path d="M620.2 412.45L133.88 419.88V418.2L620.2 410.78V412.45Z" fill="#000000"/>
<path d="M620.2 414.12L133.88 421.55V419.88L620.2 412.45V414.12Z" fill="#000000"/>
<path d="M620.2 415.79L133.88 423.22V421.55L620.2 414.12V415.79Z" fill="#000000"/>
<path d="M620.2 417.46L133.88 424.89V423.22L620.2 415.79V417.46Z" fill="#000000"/>
<path d="M620.2 419.13L133.88 426.56V424.89L620.2 417.46V419.13Z" fill="#000000"/>
<path d="M620.2 420.81L133.88 428.23V426.56L620.2 419.13V420.81Z" fill="#000000"/>
<path d="M620.2 422.48L133.88 429.9V428.23L620.2 420.81V422.48Z" fill="#000000"/>
<path d="M620.2 424.149L133.88 431.569V429.899L620.2 422.479V424.149Z" fill="#000000"/>
<path d="M620.2 425.819L133.88 433.239V431.569L620.2 424.149V425.819Z" fill="#000000"/>
<path d="M620.2 427.49L133.88 434.91V433.24L620.2 425.82V427.49Z" fill="#000000"/>
<path d="M620.2 429.16L133.88 436.58V434.91L620.2 427.49V429.16Z" fill="#000000"/>
<path d="M620.2 430.83L133.88 438.25V436.58L620.2 429.16V430.83Z" fill="#000000"/>
<path d="M620.2 432.5L133.88 439.93V438.25L620.2 430.83V432.5Z" fill="#000000"/>
<path d="M620.2 434.17L133.88 441.6V439.93L620.2 432.5V434.17Z" fill="#000000"/>
<path d="M620.2 435.84L133.88 443.27V441.6L620.2 434.17V435.84Z" fill="#000000"/>
<path d="M620.2 437.51L133.88 444.94V443.27L620.2 435.84V437.51Z" fill="#000000"/>
<path d="M620.2 439.19L133.88 446.61V444.94L620.2 437.51V439.19Z" fill="#000000"/>
<path d="M620.2 440.859L133.88 448.279V446.609L620.2 439.189V440.859Z" fill="#000000"/>
<path d="M620.2 442.529L133.88 449.949V448.279L620.2 440.859V442.529Z" fill="#000000"/>
<path d="M620.2 444.2L133.88 451.62V449.95L620.2 442.53V444.2Z" fill="#000000"/>
<path d="M620.2 445.87L133.88 453.29V451.62L620.2 444.2V445.87Z" fill="#000000"/>
<path d="M620.2 447.54L133.88 454.96V453.29L620.2 445.87V447.54Z" fill="#000000"/>
<path d="M620.2 449.21L133.88 456.63V454.96L620.2 447.54V449.21Z" fill="#000000"/>
<path d="M620.2 450.88L133.88 458.31V456.63L620.2 449.21V450.88Z" fill="#000000"/>
<path d="M620.2 452.55L133.88 459.98V458.31L620.2 450.88V452.55Z" fill="#000000"/>
<path d="M620.2 454.22L133.88 461.65V459.98L620.2 452.55V454.22Z" fill="#000000"/>
<path d="M620.2 455.89L133.88 463.32V461.65L620.2 454.22V455.89Z" fill="#000000"/>
<path d="M620.2 457.56L133.88 464.99V463.32L620.2 455.89V457.56Z" fill="#000000"/>
<path d="M620.2 459.24L133.88 466.66V464.99L620.2 457.56V459.24Z" fill="#000000"/>
<path d="M620.2 460.91L133.88 468.33V466.66L620.2 459.24V460.91Z" fill="#000000"/>
<path d="M133.88 468.33L620.2 460.91V486.27H133.88V468.33Z" fill="#000000"/>
</g>
<mask id="mask2_57_1381" style="mask-type:luminance" maskUnits="userSpaceOnUse" x="633" y="316" width="83" height="168">
<path d="M692.75 328.79C694.57 326.31 698.587 325.07 704.8 325.07C708.8 325.07 711.537 324.697 713.01 323.95C713.668 323.674 714.228 323.208 714.619 322.611C715.009 322.014 715.212 321.313 715.2 320.6C715.2 318.12 713.2 316.88 709.2 316.88H704.27L675.51 317.88H652.24L641.24 316.88H639.59C635.59 316.88 633.59 318.12 633.59 320.6C633.59 323.58 637.057 325.07 643.99 325.07C649.83 325.07 653.72 326.35 655.63 328.91C657.54 331.47 658.51 336.48 658.51 343.91V456.81C658.51 464.423 657.597 469.47 655.77 471.95C653.944 474.43 650.017 475.67 643.99 475.67C639.99 475.67 637.254 476.04 635.78 476.78C635.123 477.057 634.564 477.523 634.173 478.12C633.783 478.717 633.58 479.417 633.59 480.13C633.59 482.61 635.59 483.85 639.59 483.85H644.52L673.82 482.85H696.55L707.5 483.85H709.15C713.15 483.85 715.15 482.61 715.15 480.13C715.15 477.163 711.684 475.677 704.75 475.67C698.75 475.67 694.777 474.387 692.83 471.82C690.884 469.253 689.927 464.253 689.96 456.82V343.92C690.007 336.32 690.937 331.277 692.75 328.79Z" fill="white"/>
</mask>
<g mask="url(#mask2_57_1381)">
<path d="M639.52 316.88L633.62 316.95V316.88H639.52Z" fill="#000000"/>
<path d="M715.22 317.77L633.62 318.75V316.95L639.52 316.88H715.22V317.77Z" fill="#000000"/>
<path d="M715.22 319.56L633.62 320.55V318.75L715.22 317.77V319.56Z" fill="#000000"/>
<path d="M715.22 321.36L633.62 322.34V320.55L715.22 319.56V321.36Z" fill="#000000"/>
<path d="M715.22 323.159L633.62 324.139V322.339L715.22 321.359V323.159Z" fill="#000000"/>
<path d="M715.22 324.96L633.62 325.94V324.14L715.22 323.16V324.96Z" fill="#000000"/>
<path d="M715.22 326.76L633.62 327.74V325.94L715.22 324.96V326.76Z" fill="#000000"/>
<path d="M715.22 328.56L633.62 329.54V327.74L715.22 326.76V328.56Z" fill="#000000"/>
<path d="M715.22 330.36L633.62 331.34V329.54L715.22 328.56V330.36Z" fill="#000000"/>
<path d="M715.22 332.159L633.62 333.129V331.339L715.22 330.359V332.159Z" fill="#000000"/>
<path d="M715.22 333.95L633.62 334.93V333.13L715.22 332.16V333.95Z" fill="#000000"/>
<path d="M715.22 335.75L633.62 336.73V334.93L715.22 333.95V335.75Z" fill="#000000"/>
<path d="M715.22 337.55L633.62 338.53V336.73L715.22 335.75V337.55Z" fill="#000000"/>
<path d="M715.22 339.35L633.62 340.33V338.53L715.22 337.55V339.35Z" fill="#000000"/>
<path d="M715.22 341.15L633.62 342.13V340.33L715.22 339.35V341.15Z" fill="#000000"/>
<path d="M715.22 342.949L633.62 343.929V342.129L715.22 341.149V342.949Z" fill="#000000"/>
<path d="M715.22 344.75L633.62 345.73V343.93L715.22 342.95V344.75Z" fill="#000000"/>
<path d="M715.22 346.55L633.62 347.52V345.73L715.22 344.75V346.55Z" fill="#000000"/>
<path d="M715.22 348.34L633.62 349.32V347.52L715.22 346.55V348.34Z" fill="#000000"/>
<path d="M715.22 350.14L633.62 351.12V349.32L715.22 348.34V350.14Z" fill="#000000"/>
<path d="M715.22 351.94L633.62 352.92V351.12L715.22 350.14V351.94Z" fill="#000000"/>
<path d="M715.22 353.739L633.62 354.719V352.919L715.22 351.939V353.739Z" fill="#000000"/>
<path d="M715.22 355.54L633.62 356.52V354.72L715.22 353.74V355.54Z" fill="#000000"/>
<path d="M715.22 357.34L633.62 358.32V356.52L715.22 355.54V357.34Z" fill="#000000"/>
<path d="M715.22 359.14L633.62 360.12V358.32L715.22 357.34V359.14Z" fill="#000000"/>
<path d="M715.22 360.94L633.62 361.91V360.12L715.22 359.14V360.94Z" fill="#000000"/>
<path d="M715.22 362.729L633.62 363.709V361.909L715.22 360.939V362.729Z" fill="#000000"/>
<path d="M715.22 364.529L633.62 365.509V363.709L715.22 362.729V364.529Z" fill="#000000"/>
<path d="M715.22 366.33L633.62 367.31V365.51L715.22 364.53V366.33Z" fill="#000000"/>
<path d="M715.22 368.13L633.62 369.11V367.31L715.22 366.33V368.13Z" fill="#000000"/>
<path d="M715.22 369.93L633.62 370.91V369.11L715.22 368.13V369.93Z" fill="#000000"/>
<path d="M715.22 371.73L633.62 372.71V370.91L715.22 369.93V371.73Z" fill="#000000"/>
<path d="M715.22 373.519L633.62 374.499V372.709L715.22 371.729V373.519Z" fill="#000000"/>
<path d="M715.22 375.32L633.62 376.3V374.5L715.22 373.52V375.32Z" fill="#000000"/>
<path d="M715.22 377.12L633.62 378.1V376.3L715.22 375.32V377.12Z" fill="#000000"/>
<path d="M715.22 378.92L633.62 379.9V378.1L715.22 377.12V378.92Z" fill="#000000"/>
<path d="M715.22 380.72L633.62 381.7V379.9L715.22 378.92V380.72Z" fill="#000000"/>
<path d="M715.22 382.52L633.62 383.5V381.7L715.22 380.72V382.52Z" fill="#000000"/>
<path d="M715.22 384.32L633.62 385.3V383.5L715.22 382.52V384.32Z" fill="#000000"/>
<path d="M715.22 386.12L633.62 387.1V385.3L715.22 384.32V386.12Z" fill="#000000"/>
<path d="M715.22 387.92L633.62 388.89V387.1L715.22 386.12V387.92Z" fill="#000000"/>
<path d="M715.22 389.71L633.62 390.69V388.89L715.22 387.92V389.71Z" fill="#000000"/>
<path d="M715.22 391.51L633.62 392.49V390.69L715.22 389.71V391.51Z" fill="#000000"/>
<path d="M715.22 393.31L633.62 394.29V392.49L715.22 391.51V393.31Z" fill="#000000"/>
<path d="M715.22 395.11L633.62 396.09V394.29L715.22 393.31V395.11Z" fill="#000000"/>
<path d="M715.22 396.909L633.62 397.889V396.089L715.22 395.109V396.909Z" fill="#000000"/>
<path d="M715.22 398.71L633.62 399.69V397.89L715.22 396.91V398.71Z" fill="#000000"/>
<path d="M715.22 400.5L633.62 401.49V399.69L715.22 398.71V400.5Z" fill="#000000"/>
<path d="M715.22 402.3L633.62 403.28V401.49L715.22 400.5V402.3Z" fill="#000000"/>
<path d="M715.22 404.1L633.62 405.08V403.28L715.22 402.3V404.1Z" fill="#000000"/>
<path d="M715.22 405.9L633.62 406.88V405.08L715.22 404.1V405.9Z" fill="#000000"/>
<path d="M715.22 407.699L633.62 408.679V406.879L715.22 405.899V407.699Z" fill="#000000"/>
<path d="M715.22 409.5L633.62 410.48V408.68L715.22 407.7V409.5Z" fill="#000000"/>
<path d="M715.22 411.3L633.62 412.28V410.48L715.22 409.5V411.3Z" fill="#000000"/>
<path d="M715.22 413.1L633.62 414.07V412.28L715.22 411.3V413.1Z" fill="#000000"/>
<path d="M715.22 414.89L633.62 415.87V414.07L715.22 413.1V414.89Z" fill="#000000"/>
<path d="M715.22 416.69L633.62 417.67V415.87L715.22 414.89V416.69Z" fill="#000000"/>
<path d="M715.22 418.489L633.62 419.469V417.669L715.22 416.689V418.489Z" fill="#000000"/>
<path d="M715.22 420.29L633.62 421.27V419.47L715.22 418.49V420.29Z" fill="#000000"/>
<path d="M715.22 422.09L633.62 423.07V421.27L715.22 420.29V422.09Z" fill="#000000"/>
<path d="M715.22 423.89L633.62 424.87V423.07L715.22 422.09V423.89Z" fill="#000000"/>
<path d="M715.22 425.69L633.62 426.67V424.87L715.22 423.89V425.69Z" fill="#000000"/>
<path d="M715.22 427.489L633.62 428.459V426.669L715.22 425.689V427.489Z" fill="#000000"/>
<path d="M715.22 429.28L633.62 430.26V428.46L715.22 427.49V429.28Z" fill="#000000"/>
<path d="M715.22 431.08L633.62 432.06V430.26L715.22 429.28V431.08Z" fill="#000000"/>
<path d="M715.22 432.88L633.62 433.86V432.06L715.22 431.08V432.88Z" fill="#000000"/>
<path d="M715.22 434.68L633.62 435.66V433.86L715.22 432.88V434.68Z" fill="#000000"/>
<path d="M715.22 436.48L633.62 437.46V435.66L715.22 434.68V436.48Z" fill="#000000"/>
<path d="M715.22 438.279L633.62 439.259V437.459L715.22 436.479V438.279Z" fill="#000000"/>
<path d="M715.22 440.08L633.62 441.06V439.26L715.22 438.28V440.08Z" fill="#000000"/>
<path d="M715.22 441.88L633.62 442.85V441.06L715.22 440.08V441.88Z" fill="#000000"/>
<path d="M715.22 443.67L633.62 444.65V442.85L715.22 441.88V443.67Z" fill="#000000"/>
<path d="M715.22 445.47L633.62 446.45V444.65L715.22 443.67V445.47Z" fill="#000000"/>
<path d="M715.22 447.27L633.62 448.25V446.45L715.22 445.47V447.27Z" fill="#000000"/>
<path d="M715.22 449.07L633.62 450.05V448.25L715.22 447.27V449.07Z" fill="#000000"/>
<path d="M715.22 450.87L633.62 451.85V450.05L715.22 449.07V450.87Z" fill="#000000"/>
<path d="M715.22 452.67L633.62 453.65V451.85L715.22 450.87V452.67Z" fill="#000000"/>
<path d="M715.22 454.46L633.62 455.44V453.65L715.22 452.67V454.46Z" fill="#000000"/>
<path d="M715.22 456.26L633.62 457.24V455.44L715.22 454.46V456.26Z" fill="#000000"/>
<path d="M715.22 458.06L633.62 459.04V457.24L715.22 456.26V458.06Z" fill="#000000"/>
<path d="M715.22 459.86L633.62 460.84V459.04L715.22 458.06V459.86Z" fill="#000000"/>
<path d="M715.22 461.659L633.62 462.639V460.839L715.22 459.859V461.659Z" fill="#000000"/>
<path d="M715.22 463.46L633.62 464.44V462.64L715.22 461.66V463.46Z" fill="#000000"/>
<path d="M715.22 465.26L633.62 466.24V464.44L715.22 463.46V465.26Z" fill="#000000"/>
<path d="M715.22 467.06L633.62 468.04V466.24L715.22 465.26V467.06Z" fill="#000000"/>
<path d="M715.22 468.86L633.62 469.83V468.04L715.22 467.06V468.86Z" fill="#000000"/>
<path d="M715.22 470.649L633.62 471.629V469.829L715.22 468.859V470.649Z" fill="#000000"/>
<path d="M715.22 472.449L633.62 473.429V471.629L715.22 470.649V472.449Z" fill="#000000"/>
<path d="M715.22 474.25L633.62 475.23V473.43L715.22 472.45V474.25Z" fill="#000000"/>
<path d="M715.22 476.05L633.62 477.03V475.23L715.22 474.25V476.05Z" fill="#000000"/>
<path d="M715.22 477.85L633.62 478.83V477.03L715.22 476.05V477.85Z" fill="#000000"/>
<path d="M715.22 479.65L633.62 480.63V478.83L715.22 477.85V479.65Z" fill="#000000"/>
<path d="M715.22 481.439L633.62 482.419V480.629L715.22 479.649V481.439Z" fill="#000000"/>
<path d="M633.62 482.419L715.22 481.439V483.849H633.62V482.419Z" fill="#000000"/>
</g>
<mask id="mask3_57_1381" style="mask-type:luminance" maskUnits="userSpaceOnUse" x="732" y="319" width="196" height="170">
<path d="M922.41 319.95H870.07C865.33 319.95 862.97 320.95 862.97 322.95C862.97 324.53 863.84 325.61 865.6 326.18C867.36 326.75 870.68 327.04 875.6 327.04C882.093 327.04 886.217 328.927 887.97 332.7C889.723 336.474 890.6 345.424 890.6 359.55L891.6 441.07L795.88 326.81C792.9 323.15 790.97 321.094 790.09 320.64C789.39 320.18 787.73 319.95 785.09 319.95H767.23L743.29 319.2C737.33 319.2 734.35 320.424 734.35 322.87C734.318 323.54 734.506 324.201 734.885 324.753C735.264 325.306 735.814 325.719 736.45 325.93C737.85 326.504 740.657 326.787 744.87 326.78C751.177 326.78 755.177 328.114 756.87 330.78C758.563 333.447 759.397 339.68 759.37 349.48V436.48C759.37 454.734 758.753 465.614 757.52 469.12C756.287 472.627 752.52 474.744 746.22 475.47C739.9 476.21 736.083 476.877 734.77 477.47C734.154 477.7 733.627 478.121 733.267 478.671C732.907 479.222 732.733 479.873 732.77 480.53C732.77 482.81 734.43 483.95 737.77 483.95L748.29 483.22C754.933 482.518 761.61 482.184 768.29 482.22H787.49L792.75 482.95C797.31 482.95 799.59 481.727 799.59 479.28C799.59 476.834 797.923 475.614 794.59 475.62C783.19 475.62 776.307 473.54 773.94 469.38C771.573 465.22 770.39 453.284 770.39 433.57L769.39 342.86L889 482.29C892.86 486.524 895.86 488.64 898 488.64C901.333 488.64 903 486.114 903 481.06L902.21 344.57C902.21 338.07 903.043 333.887 904.71 332.02C906.377 330.154 909.927 329.014 915.36 328.6C920.793 328.2 924.213 327.674 925.62 327.02C926.281 326.738 926.838 326.257 927.215 325.645C927.591 325.032 927.767 324.318 927.72 323.6C927.687 321.174 925.917 319.957 922.41 319.95Z" fill="white"/>
</mask>
<g mask="url(#mask3_57_1381)">
<path d="M927.67 321.57L732.77 319.96V319.21H927.67V321.57Z" fill="#000000"/>
<path d="M927.67 323.32L732.77 321.71V319.96L927.67 321.57V323.32Z" fill="#000000"/>
<path d="M927.67 325.06L732.77 323.45V321.71L927.67 323.32V325.06Z" fill="#000000"/>
<path d="M927.67 326.8L732.77 325.19V323.45L927.67 325.06V326.8Z" fill="#000000"/>
<path d="M927.67 328.54L732.77 326.93V325.19L927.67 326.8V328.54Z" fill="#000000"/>
<path d="M927.67 330.28L732.77 328.67V326.93L927.67 328.54V330.28Z" fill="#000000"/>
<path d="M927.67 332.02L732.77 330.41V328.67L927.67 330.28V332.02Z" fill="#000000"/>
<path d="M927.67 333.76L732.77 332.15V330.41L927.67 332.02V333.76Z" fill="#000000"/>
<path d="M927.67 335.5L732.77 333.89V332.15L927.67 333.76V335.5Z" fill="#000000"/>
<path d="M927.67 337.24L732.77 335.63V333.89L927.67 335.5V337.24Z" fill="#000000"/>
<path d="M927.67 338.99L732.77 337.37V335.63L927.67 337.24V338.99Z" fill="#000000"/>
<path d="M927.67 340.73L732.77 339.12V337.37L927.67 338.99V340.73Z" fill="#000000"/>
<path d="M927.67 342.47L732.77 340.86V339.12L927.67 340.73V342.47Z" fill="#000000"/>
<path d="M927.67 344.21L732.77 342.6V340.86L927.67 342.47V344.21Z" fill="#000000"/>
<path d="M927.67 345.95L732.77 344.34V342.6L927.67 344.21V345.95Z" fill="#000000"/>
<path d="M927.67 347.69L732.77 346.08V344.34L927.67 345.95V347.69Z" fill="#000000"/>
<path d="M927.67 349.43L732.77 347.82V346.08L927.67 347.69V349.43Z" fill="#000000"/>
<path d="M927.67 351.17L732.77 349.56V347.82L927.67 349.43V351.17Z" fill="#000000"/>
<path d="M927.67 352.91L732.77 351.3V349.56L927.67 351.17V352.91Z" fill="#000000"/>
<path d="M927.67 354.65L732.77 353.04V351.3L927.67 352.91V354.65Z" fill="#000000"/>
<path d="M927.67 356.39L732.77 354.78V353.04L927.67 354.65V356.39Z" fill="#000000"/>
<path d="M927.67 358.14L732.77 356.52V354.78L927.67 356.39V358.14Z" fill="#000000"/>
<path d="M927.67 359.88L732.77 358.27V356.52L927.67 358.14V359.88Z" fill="#000000"/>
<path d="M927.67 361.62L732.77 360.01V358.27L927.67 359.88V361.62Z" fill="#000000"/>
<path d="M927.67 363.36L732.77 361.75V360.01L927.67 361.62V363.36Z" fill="#000000"/>
<path d="M927.67 365.1L732.77 363.49V361.75L927.67 363.36V365.1Z" fill="#000000"/>
<path d="M927.67 366.84L732.77 365.23V363.49L927.67 365.1V366.84Z" fill="#000000"/>
<path d="M927.67 368.58L732.77 366.97V365.23L927.67 366.84V368.58Z" fill="#000000"/>
<path d="M927.67 370.32L732.77 368.71V366.97L927.67 368.58V370.32Z" fill="#000000"/>
<path d="M927.67 372.06L732.77 370.45V368.71L927.67 370.32V372.06Z" fill="#000000"/>
<path d="M927.67 373.81L732.77 372.19V370.45L927.67 372.06V373.81Z" fill="#000000"/>
<path d="M927.67 375.55L732.77 373.94V372.19L927.67 373.81V375.55Z" fill="#000000"/>
<path d="M927.67 377.29L732.77 375.68V373.94L927.67 375.55V377.29Z" fill="#000000"/>
<path d="M927.67 379.03L732.77 377.42V375.68L927.67 377.29V379.03Z" fill="#000000"/>
<path d="M927.67 380.77L732.77 379.16V377.42L927.67 379.03V380.77Z" fill="#000000"/>
<path d="M927.67 382.51L732.77 380.9V379.16L927.67 380.77V382.51Z" fill="#000000"/>
<path d="M927.67 384.25L732.77 382.64V380.9L927.67 382.51V384.25Z" fill="#000000"/>
<path d="M927.67 385.99L732.77 384.38V382.64L927.67 384.25V385.99Z" fill="#000000"/>
<path d="M927.67 387.73L732.77 386.12V384.38L927.67 385.99V387.73Z" fill="#000000"/>
<path d="M927.67 389.47L732.77 387.86V386.12L927.67 387.73V389.47Z" fill="#000000"/>
<path d="M927.67 391.21L732.77 389.6V387.86L927.67 389.47V391.21Z" fill="#000000"/>
<path d="M927.67 392.95L732.77 391.35V389.6L927.67 391.21V392.95Z" fill="#000000"/>
<path d="M927.67 394.7L732.77 393.09V391.35L927.67 392.95V394.7Z" fill="#000000"/>
<path d="M927.67 396.44L732.77 394.83V393.09L927.67 394.7V396.44Z" fill="#000000"/>
<path d="M927.67 398.18L732.77 396.57V394.83L927.67 396.44V398.18Z" fill="#000000"/>
<path d="M927.67 399.92L732.77 398.31V396.57L927.67 398.18V399.92Z" fill="#000000"/>
<path d="M927.67 401.66L732.77 400.05V398.31L927.67 399.92V401.66Z" fill="#000000"/>
<path d="M927.67 403.4L732.77 401.79V400.05L927.67 401.66V403.4Z" fill="#000000"/>
<path d="M927.67 405.14L732.77 403.53V401.79L927.67 403.4V405.14Z" fill="#000000"/>
<path d="M927.67 406.88L732.77 405.27V403.53L927.67 405.14V406.88Z" fill="#000000"/>
<path d="M927.67 408.62L732.77 407.01V405.27L927.67 406.88V408.62Z" fill="#000000"/>
<path d="M927.67 410.37L732.77 408.75V407.01L927.67 408.62V410.37Z" fill="#000000"/>
<path d="M927.67 412.11L732.77 410.5V408.75L927.67 410.37V412.11Z" fill="#000000"/>
<path d="M927.67 413.85L732.77 412.24V410.5L927.67 412.11V413.85Z" fill="#000000"/>
<path d="M927.67 415.59L732.77 413.98V412.24L927.67 413.85V415.59Z" fill="#000000"/>
<path d="M927.67 417.33L732.77 415.72V413.98L927.67 415.59V417.33Z" fill="#000000"/>
<path d="M927.67 419.07L732.77 417.46V415.72L927.67 417.33V419.07Z" fill="#000000"/>
<path d="M927.67 420.81L732.77 419.2V417.46L927.67 419.07V420.81Z" fill="#000000"/>
<path d="M927.67 422.55L732.77 420.94V419.2L927.67 420.81V422.55Z" fill="#000000"/>
<path d="M927.67 424.29L732.77 422.68V420.94L927.67 422.55V424.29Z" fill="#000000"/>
<path d="M927.67 426.03L732.77 424.42V422.68L927.67 424.29V426.03Z" fill="#000000"/>
<path d="M927.67 427.77L732.77 426.16V424.42L927.67 426.03V427.77Z" fill="#000000"/>
<path d="M927.67 429.52L732.77 427.9V426.16L927.67 427.77V429.52Z" fill="#000000"/>
<path d="M927.67 431.26L732.77 429.65V427.9L927.67 429.52V431.26Z" fill="#000000"/>
<path d="M927.67 433L732.77 431.39V429.65L927.67 431.26V433Z" fill="#000000"/>
<path d="M927.67 434.74L732.77 433.13V431.39L927.67 433V434.74Z" fill="#000000"/>
<path d="M927.67 436.48L732.77 434.87V433.13L927.67 434.74V436.48Z" fill="#000000"/>
<path d="M927.67 438.22L732.77 436.61V434.87L927.67 436.48V438.22Z" fill="#000000"/>
<path d="M927.67 439.96L732.77 438.35V436.61L927.67 438.22V439.96Z" fill="#000000"/>
<path d="M927.67 441.7L732.77 440.09V438.35L927.67 439.96V441.7Z" fill="#000000"/>
<path d="M927.67 443.44L732.77 441.83V440.09L927.67 441.7V443.44Z" fill="#000000"/>
<path d="M927.67 445.19L732.77 443.57V441.83L927.67 443.44V445.19Z" fill="#000000"/>
<path d="M927.67 446.93L732.77 445.31V443.57L927.67 445.19V446.93Z" fill="#000000"/>
<path d="M927.67 448.67L732.77 447.06V445.31L927.67 446.93V448.67Z" fill="#000000"/>
<path d="M927.67 450.41L732.77 448.8V447.06L927.67 448.67V450.41Z" fill="#000000"/>
<path d="M927.67 452.15L732.77 450.54V448.8L927.67 450.41V452.15Z" fill="#000000"/>
<path d="M927.67 453.89L732.77 452.28V450.54L927.67 452.15V453.89Z" fill="#000000"/>
<path d="M927.67 455.63L732.77 454.02V452.28L927.67 453.89V455.63Z" fill="#000000"/>
<path d="M927.67 457.37L732.77 455.76V454.02L927.67 455.63V457.37Z" fill="#000000"/>
<path d="M927.67 459.11L732.77 457.5V455.76L927.67 457.37V459.11Z" fill="#000000"/>
<path d="M927.67 460.85L732.77 459.24V457.5L927.67 459.11V460.85Z" fill="#000000"/>
<path d="M927.67 462.59L732.77 460.98V459.24L927.67 460.85V462.59Z" fill="#000000"/>
<path d="M927.67 464.33L732.77 462.73V460.98L927.67 462.59V464.33Z" fill="#000000"/>
<path d="M927.67 466.08L732.77 464.47V462.73L927.67 464.33V466.08Z" fill="#000000"/>
<path d="M927.67 467.82L732.77 466.21V464.47L927.67 466.08V467.82Z" fill="#000000"/>
<path d="M927.67 469.56L732.77 467.95V466.21L927.67 467.82V469.56Z" fill="#000000"/>
<path d="M927.67 471.3L732.77 469.69V467.95L927.67 469.56V471.3Z" fill="#000000"/>
<path d="M927.67 473.04L732.77 471.43V469.69L927.67 471.3V473.04Z" fill="#000000"/>
<path d="M927.67 474.78L732.77 473.17V471.43L927.67 473.04V474.78Z" fill="#000000"/>
<path d="M927.67 476.52L732.77 474.91V473.17L927.67 474.78V476.52Z" fill="#000000"/>
<path d="M927.67 478.26L732.77 476.65V474.91L927.67 476.52V478.26Z" fill="#000000"/>
<path d="M927.67 480L732.77 478.39V476.65L927.67 478.26V480Z" fill="#000000"/>
<path d="M927.67 481.75L732.77 480.13V478.39L927.67 480V481.75Z" fill="#000000"/>
<path d="M732.77 480.13L927.67 481.75V488.64H732.77V480.13Z" fill="#000000"/>
</g>
<mask id="mask4_57_1381" style="mask-type:luminance" maskUnits="userSpaceOnUse" x="940" y="318" width="135" height="166">
<path d="M1071.4 442.41C1069.86 442.41 1068.41 443.47 1067.04 445.59C1060.2 458.344 1054 466.517 1048.45 470.11C1042.9 473.704 1033.79 475.504 1021.13 475.51C1009.85 475.51 1002.46 474.177 998.95 471.51C995.443 468.844 993.69 463.017 993.69 454.03V408.05C993.69 404.3 994.41 402.05 995.87 401.33C997.33 400.61 1001.64 400.23 1008.87 400.23C1022.04 400.23 1030.68 401.457 1034.77 403.91C1038.86 406.364 1042.11 412.084 1044.52 421.07C1045.71 425.33 1047.52 427.45 1049.91 427.45C1052.13 427.45 1053.24 425.72 1053.24 422.28L1052.73 415.63L1052.47 408.74C1052.47 406.934 1052.68 402.5 1053.11 395.44C1053.54 388.38 1053.75 382.967 1053.75 379.2L1054.27 372.3C1054.27 369.84 1053.24 368.61 1051.19 368.61C1049.31 368.61 1048.02 369.92 1047.34 372.53C1044.26 381.357 1040.46 386.917 1035.93 389.21C1031.4 391.504 1022.38 392.647 1008.87 392.64C1001.69 392.64 997.357 392.11 995.87 391.05C994.41 389.98 993.69 387.05 993.69 382.1V342.85C993.69 335.33 994.46 330.754 996 329.12C997.54 327.487 1001.81 326.67 1008.82 326.67C1023.01 326.67 1033.96 328.084 1041.65 330.91C1046.27 332.57 1049.65 334.61 1051.91 337.02C1054.17 339.43 1056.91 344.13 1060.37 351.11C1061.91 354.27 1063.53 355.85 1065.25 355.85C1067.3 355.85 1068.32 354.277 1068.32 351.13V326.53C1068.32 323.38 1068.07 321.22 1067.55 320.06C1067.21 319.24 1066.27 318.82 1064.73 318.82L1058.83 319.56H950.83L946.47 318.82C942.7 318.82 940.83 320.01 940.83 322.39C940.83 325.244 944.077 326.67 950.57 326.67C956.043 326.67 959.677 327.937 961.47 330.47C963.263 333.004 964.16 337.947 964.16 345.3V456.87C964.16 464.39 963.307 469.39 961.6 471.87C959.893 474.35 956.227 475.577 950.6 475.55C946.84 475.55 944.27 475.93 942.91 476.69C942.285 477.008 941.765 477.498 941.41 478.102C941.056 478.707 940.882 479.4 940.91 480.1C940.91 482.63 942.78 483.89 946.55 483.89L950.91 483.15H1057.86C1064.53 483.15 1068.41 482.62 1069.53 481.56C1070.65 480.5 1071.19 476.78 1071.19 470.4L1072.99 455.93C1073.89 452.818 1074.41 449.608 1074.53 446.37C1074.5 443.737 1073.45 442.417 1071.4 442.41Z" fill="white"/>
</mask>
<g mask="url(#mask4_57_1381)">
<path d="M988.58 318.82L940.85 320.29V318.82H988.58Z" fill="#000000"/>
<path d="M1045.27 318.82L940.85 322.04V320.29L988.58 318.82H1045.27Z" fill="#000000"/>
<path d="M1074.48 319.67L940.85 323.79V322.04L1045.27 318.82H1074.48V319.67Z" fill="#000000"/>
<path d="M1074.48 321.42L940.85 325.54V323.79L1074.48 319.67V321.42Z" fill="#000000"/>
<path d="M1074.48 323.17L940.85 327.29V325.54L1074.48 321.42V323.17Z" fill="#000000"/>
<path d="M1074.48 324.92L940.85 329.04V327.29L1074.48 323.17V324.92Z" fill="#000000"/>
<path d="M1074.48 326.66L940.85 330.79V329.04L1074.48 324.92V326.66Z" fill="#000000"/>
<path d="M1074.48 328.41L940.85 332.54V330.79L1074.48 326.66V328.41Z" fill="#000000"/>
<path d="M1074.48 330.16L940.85 334.29V332.54L1074.48 328.41V330.16Z" fill="#000000"/>
<path d="M1074.48 331.91L940.85 336.04V334.29L1074.48 330.16V331.91Z" fill="#000000"/>
<path d="M1074.48 333.66L940.85 337.79V336.04L1074.48 331.91V333.66Z" fill="#000000"/>
<path d="M1074.48 335.41L940.85 339.54V337.79L1074.48 333.66V335.41Z" fill="#000000"/>
<path d="M1074.48 337.16L940.85 341.29V339.54L1074.48 335.41V337.16Z" fill="#000000"/>
<path d="M1074.48 338.91L940.85 343.04V341.29L1074.48 337.16V338.91Z" fill="#000000"/>
<path d="M1074.48 340.66L940.85 344.79V343.04L1074.48 338.91V340.66Z" fill="#000000"/>
<path d="M1074.48 342.41L940.85 346.54V344.79L1074.48 340.66V342.41Z" fill="#000000"/>
<path d="M1074.48 344.16L940.85 348.29V346.54L1074.48 342.41V344.16Z" fill="#000000"/>
<path d="M1074.48 345.91L940.85 350.04V348.29L1074.48 344.16V345.91Z" fill="#000000"/>
<path d="M1074.48 347.66L940.85 351.79V350.04L1074.48 345.91V347.66Z" fill="#000000"/>
<path d="M1074.48 349.41L940.85 353.54V351.79L1074.48 347.66V349.41Z" fill="#000000"/>
<path d="M1074.48 351.16L940.85 355.29V353.54L1074.48 349.41V351.16Z" fill="#000000"/>
<path d="M1074.48 352.91L940.85 357.03V355.29L1074.48 351.16V352.91Z" fill="#000000"/>
<path d="M1074.48 354.66L940.85 358.78V357.03L1074.48 352.91V354.66Z" fill="#000000"/>
<path d="M1074.48 356.41L940.85 360.53V358.78L1074.48 354.66V356.41Z" fill="#000000"/>
<path d="M1074.48 358.16L940.85 362.28V360.53L1074.48 356.41V358.16Z" fill="#000000"/>
<path d="M1074.48 359.91L940.85 364.03V362.28L1074.48 358.16V359.91Z" fill="#000000"/>
<path d="M1074.48 361.66L940.85 365.78V364.03L1074.48 359.91V361.66Z" fill="#000000"/>
<path d="M1074.48 363.41L940.85 367.53V365.78L1074.48 361.66V363.41Z" fill="#000000"/>
<path d="M1074.48 365.16L940.85 369.28V367.53L1074.48 363.41V365.16Z" fill="#000000"/>
<path d="M1074.48 366.91L940.85 371.03V369.28L1074.48 365.16V366.91Z" fill="#000000"/>
<path d="M1074.48 368.66L940.85 372.78V371.03L1074.48 366.91V368.66Z" fill="#000000"/>
<path d="M1074.48 370.41L940.85 374.53V372.78L1074.48 368.66V370.41Z" fill="#000000"/>
<path d="M1074.48 372.16L940.85 376.28V374.53L1074.48 370.41V372.16Z" fill="#000000"/>
<path d="M1074.48 373.91L940.85 378.03V376.28L1074.48 372.16V373.91Z" fill="#000000"/>
<path d="M1074.48 375.66L940.85 379.78V378.03L1074.48 373.91V375.66Z" fill="#000000"/>
<path d="M1074.48 377.41L940.85 381.53V379.78L1074.48 375.66V377.41Z" fill="#000000"/>
<path d="M1074.48 379.16L940.85 383.28V381.53L1074.48 377.41V379.16Z" fill="#000000"/>
<path d="M1074.48 380.91L940.85 385.03V383.28L1074.48 379.16V380.91Z" fill="#000000"/>
<path d="M1074.48 382.65L940.85 386.78V385.03L1074.48 380.91V382.65Z" fill="#000000"/>
<path d="M1074.48 384.4L940.85 388.53V386.78L1074.48 382.65V384.4Z" fill="#000000"/>
<path d="M1074.48 386.15L940.85 390.28V388.53L1074.48 384.4V386.15Z" fill="#000000"/>
<path d="M1074.48 387.9L940.85 392.03V390.28L1074.48 386.15V387.9Z" fill="#000000"/>
<path d="M1074.48 389.65L940.85 393.78V392.03L1074.48 387.9V389.65Z" fill="#000000"/>
<path d="M1074.48 391.4L940.85 395.53V393.78L1074.48 389.65V391.4Z" fill="#000000"/>
<path d="M1074.48 393.15L940.85 397.28V395.53L1074.48 391.4V393.15Z" fill="#000000"/>
<path d="M1074.48 394.9L940.85 399.03V397.28L1074.48 393.15V394.9Z" fill="#000000"/>
<path d="M1074.48 396.65L940.85 400.78V399.03L1074.48 394.9V396.65Z" fill="#000000"/>
<path d="M1074.48 398.4L940.85 402.53V400.78L1074.48 396.65V398.4Z" fill="#000000"/>
<path d="M1074.48 400.15L940.85 404.28V402.53L1074.48 398.4V400.15Z" fill="#000000"/>
<path d="M1074.48 401.9L940.85 406.03V404.28L1074.48 400.15V401.9Z" fill="#000000"/>
<path d="M1074.48 403.65L940.85 407.78V406.03L1074.48 401.9V403.65Z" fill="#000000"/>
<path d="M1074.48 405.4L940.85 409.53V407.78L1074.48 403.65V405.4Z" fill="#000000"/>
<path d="M1074.48 407.15L940.85 411.27V409.53L1074.48 405.4V407.15Z" fill="#000000"/>
<path d="M1074.48 408.9L940.85 413.02V411.27L1074.48 407.15V408.9Z" fill="#000000"/>
<path d="M1074.48 410.65L940.85 414.77V413.02L1074.48 408.9V410.65Z" fill="#000000"/>
<path d="M1074.48 412.4L940.85 416.52V414.77L1074.48 410.65V412.4Z" fill="#000000"/>
<path d="M1074.48 414.15L940.85 418.27V416.52L1074.48 412.4V414.15Z" fill="#000000"/>
<path d="M1074.48 415.9L940.85 420.02V418.27L1074.48 414.15V415.9Z" fill="#000000"/>
<path d="M1074.48 417.65L940.85 421.77V420.02L1074.48 415.9V417.65Z" fill="#000000"/>
<path d="M1074.48 419.4L940.85 423.52V421.77L1074.48 417.65V419.4Z" fill="#000000"/>
<path d="M1074.48 421.15L940.85 425.27V423.52L1074.48 419.4V421.15Z" fill="#000000"/>
<path d="M1074.48 422.9L940.85 427.02V425.27L1074.48 421.15V422.9Z" fill="#000000"/>
<path d="M1074.48 424.65L940.85 428.77V427.02L1074.48 422.9V424.65Z" fill="#000000"/>
<path d="M1074.48 426.4L940.85 430.52V428.77L1074.48 424.65V426.4Z" fill="#000000"/>
<path d="M1074.48 428.15L940.85 432.27V430.52L1074.48 426.4V428.15Z" fill="#000000"/>
<path d="M1074.48 429.9L940.85 434.02V432.27L1074.48 428.15V429.9Z" fill="#000000"/>
<path d="M1074.48 431.65L940.85 435.77V434.02L1074.48 429.9V431.65Z" fill="#000000"/>
<path d="M1074.48 433.4L940.85 437.52V435.77L1074.48 431.65V433.4Z" fill="#000000"/>
<path d="M1074.48 435.15L940.85 439.27V437.52L1074.48 433.4V435.15Z" fill="#000000"/>
<path d="M1074.48 436.9L940.85 441.02V439.27L1074.48 435.15V436.9Z" fill="#000000"/>
<path d="M1074.48 438.65L940.85 442.77V441.02L1074.48 436.9V438.65Z" fill="#000000"/>
<path d="M1074.48 440.4L940.85 444.52V442.77L1074.48 438.65V440.4Z" fill="#000000"/>
<path d="M1074.48 442.15L940.85 446.27V444.52L1074.48 440.4V442.15Z" fill="#000000"/>
<path d="M1074.48 443.89L940.85 448.02V446.27L1074.48 442.15V443.89Z" fill="#000000"/>
<path d="M1074.48 445.641L940.85 449.771V448.021L1074.48 443.891V445.641Z" fill="#000000"/>
<path d="M1074.48 447.391L940.85 451.521V449.771L1074.48 445.641V447.391Z" fill="#000000"/>
<path d="M1074.48 449.141L940.85 453.271V451.521L1074.48 447.391V449.141Z" fill="#000000"/>
<path d="M1074.48 450.891L940.85 455.021V453.271L1074.48 449.141V450.891Z" fill="#000000"/>
<path d="M1074.48 452.641L940.85 456.771V455.021L1074.48 450.891V452.641Z" fill="#000000"/>
<path d="M1074.48 454.391L940.85 458.521V456.771L1074.48 452.641V454.391Z" fill="#000000"/>
<path d="M1074.48 456.141L940.85 460.271V458.521L1074.48 454.391V456.141Z" fill="#000000"/>
<path d="M1074.48 457.891L940.85 462.021V460.271L1074.48 456.141V457.891Z" fill="#000000"/>
<path d="M1074.48 459.641L940.85 463.771V462.021L1074.48 457.891V459.641Z" fill="#000000"/>
<path d="M1074.48 461.391L940.85 465.521V463.771L1074.48 459.641V461.391Z" fill="#000000"/>
<path d="M1074.48 463.141L940.85 467.271V465.521L1074.48 461.391V463.141Z" fill="#000000"/>
<path d="M1074.48 464.891L940.85 469.021V467.271L1074.48 463.141V464.891Z" fill="#000000"/>
<path d="M1074.48 466.641L940.85 470.771V469.021L1074.48 464.891V466.641Z" fill="#000000"/>
<path d="M1074.48 468.391L940.85 472.521V470.771L1074.48 466.641V468.391Z" fill="#000000"/>
<path d="M1074.48 470.141L940.85 474.261V472.521L1074.48 468.391V470.141Z" fill="#000000"/>
<path d="M1074.48 471.891L940.85 476.011V474.261L1074.48 470.141V471.891Z" fill="#000000"/>
<path d="M1074.48 473.641L940.85 477.761V476.011L1074.48 471.891V473.641Z" fill="#000000"/>
<path d="M1074.48 475.391L940.85 479.511V477.761L1074.48 473.641V475.391Z" fill="#000000"/>
<path d="M1074.48 477.141L940.85 481.261V479.511L1074.48 475.391V477.141Z" fill="#000000"/>
<path d="M940.85 481.261L1074.48 477.141V483.841H940.85V481.261Z" fill="#000000"/>
</g>
<path d="M139.64 532.44H2.00977V542.58H139.64V532.44Z" fill="#000000"/>
<path d="M1077.57 532.44H939.94V542.58H1077.57V532.44Z" fill="#000000"/>
<path d="M170.37 513.53H170.86L174.09 513.76H188L194.3 513.53C199.527 513.53 203.623 514.414 206.59 516.18C209.59 517.95 211.04 520.36 211.04 523.43C211.04 528.457 207.077 531.624 199.15 532.93C200.812 533.759 202.254 534.968 203.36 536.46L211.68 547.25C212.54 548.557 213.608 549.716 214.84 550.68C216.291 551.2 217.818 551.477 219.36 551.5C220.17 551.58 220.58 551.88 220.58 552.39C220.58 552.9 220.17 553.21 219.36 553.21H218.07C216.343 553.05 214.01 552.97 211.07 552.97H206.62C206.064 553.014 205.506 552.914 205 552.68C204.441 552.251 203.952 551.738 203.55 551.16L193.2 536.92C192.567 535.924 191.728 535.075 190.74 534.43C189.552 534.053 188.303 533.904 187.06 533.99C186.562 533.944 186.06 534.023 185.6 534.22C185.39 534.38 185.28 534.77 185.28 535.4V546.78C185.28 548.55 185.56 549.78 186.13 550.35C186.7 550.92 187.87 551.27 189.64 551.27C191.64 551.27 192.72 551.62 192.72 552.33C192.72 553.04 192.12 553.21 190.94 553.21H190.45L187.22 552.97H180.51L171.86 553.21H170.4C169.22 553.21 168.63 552.92 168.63 552.33C168.637 552.146 168.703 551.969 168.818 551.825C168.933 551.681 169.092 551.577 169.27 551.53C170.06 551.308 170.881 551.22 171.7 551.27C173.48 551.27 174.64 550.97 175.17 550.38C175.7 549.79 175.98 548.58 175.98 546.77V519.85C175.98 518.07 175.7 516.85 175.13 516.27C174.56 515.69 173.42 515.35 171.7 515.35C169.7 515.35 168.63 515.02 168.63 514.35C168.63 513.68 169.19 513.53 170.37 513.53ZM185.25 519.42V530.04C185.25 531.18 185.44 531.85 185.81 532.04C187.054 532.331 188.335 532.432 189.61 532.34C197.377 532.34 201.26 529.674 201.26 524.34C201.307 523.066 201.044 521.8 200.494 520.651C199.943 519.501 199.122 518.502 198.1 517.74C196 516.127 193.09 515.32 189.37 515.32C187.7 515.32 186.6 515.58 186.06 516.09C185.52 516.6 185.25 517.73 185.25 519.42Z" fill="#000000"/>
<path d="M229.75 546.72V519.89C229.75 518.12 229.47 516.89 228.9 516.32C228.33 515.75 227.19 515.41 225.46 515.41C223.46 515.41 222.39 515.07 222.39 514.41C222.39 513.75 222.98 513.56 224.17 513.56L225.55 513.73H259.55L261.41 513.56C261.89 513.56 262.19 513.65 262.3 513.85C262.499 514.344 262.581 514.878 262.54 515.41V521.32C262.54 522.08 262.22 522.46 261.54 522.46C260.86 522.46 260.49 522.08 260 521.32C259.27 520.072 258.372 518.932 257.33 517.93C256.366 517.223 255.266 516.723 254.1 516.46C250.708 515.681 247.229 515.345 243.75 515.46C241.54 515.46 240.2 515.66 239.75 516.05C239.3 516.44 239.03 517.55 239.03 519.35V528.79C239.03 529.97 239.25 530.69 239.71 530.94C241.037 531.307 242.418 531.439 243.79 531.33C248.05 531.33 250.893 531.053 252.32 530.5C253.747 529.946 254.947 528.613 255.92 526.5C255.982 526.227 256.137 525.985 256.357 525.814C256.578 525.642 256.851 525.553 257.13 525.56C257.78 525.56 258.13 525.85 258.13 526.44L257.97 528.1C257.97 529.01 257.9 530.31 257.77 532.01C257.64 533.71 257.57 534.77 257.57 535.21L257.65 536.87L257.81 538.46C257.81 539.29 257.46 539.71 256.76 539.71C256.06 539.71 255.44 539.2 255.06 538.17C254.31 536.01 253.28 534.64 251.99 534.05C250.7 533.46 247.99 533.16 243.82 533.16C242.454 533.083 241.084 533.173 239.74 533.43C239.28 533.6 239.06 534.14 239.06 535.04V546.09C239.06 548.25 239.61 549.65 240.71 550.3C241.81 550.95 244.15 551.3 247.71 551.3C251.71 551.3 254.57 550.86 256.32 550C258.07 549.14 260.03 547.17 262.18 544.1C262.339 543.878 262.545 543.695 262.784 543.563C263.023 543.432 263.288 543.356 263.56 543.34C264.21 543.34 264.56 543.65 264.56 544.28C264.522 545.068 264.357 545.844 264.07 546.58L263.51 550.06C263.51 551.59 263.33 552.49 262.98 552.74C262.63 552.99 261.41 553.12 259.3 553.12H225.6L224.22 553.3C223.03 553.3 222.44 553 222.44 552.39C222.446 552.201 222.513 552.02 222.63 551.872C222.747 551.725 222.908 551.619 223.09 551.57C223.876 551.343 224.694 551.252 225.51 551.3C227.29 551.3 228.45 551 228.99 550.41C229.53 549.82 229.75 548.53 229.75 546.72Z" fill="#000000"/>
<path d="M303.93 541.56L317.69 515.95C317.992 515.125 318.558 514.422 319.3 513.95C320.502 513.63 321.748 513.508 322.99 513.59H333.91C334.98 513.59 335.52 513.87 335.52 514.42C335.528 514.597 335.477 514.771 335.376 514.916C335.275 515.06 335.128 515.167 334.96 515.22C334.082 515.398 333.185 515.465 332.29 515.42C330.56 515.42 329.46 515.63 328.97 516.05C328.48 516.47 328.25 517.4 328.25 518.84V519.67L329.46 546.48C329.46 548.65 329.67 549.99 330.11 550.48C330.55 550.97 331.67 551.25 333.5 551.25C335.33 551.25 336.17 551.58 336.17 552.25C336.17 552.92 335.44 553.16 333.99 553.16L324.69 552.92H317.25L314.42 553.16C313.24 553.16 312.65 552.9 312.65 552.36C312.627 552.175 312.666 551.988 312.76 551.827C312.854 551.667 312.998 551.541 313.17 551.47C314.115 551.286 315.079 551.218 316.04 551.27C317.66 551.27 318.74 550.94 319.27 550.27C319.924 549.146 320.207 547.844 320.08 546.55L319.27 519.25L302.75 550.14C302.495 550.772 302.14 551.36 301.7 551.88C301.547 552.017 301.368 552.122 301.174 552.189C300.98 552.256 300.775 552.283 300.57 552.27C299.87 552.27 299.25 551.74 298.71 550.67L281.49 520.25C281.49 524.25 281.36 527.84 281.09 530.88C280.82 533.92 280.52 537.2 280.2 540.69C280.2 545.69 280.45 548.69 280.97 549.69C281.49 550.69 282.92 551.29 285.29 551.29C286.16 551.254 287.03 551.331 287.88 551.52C288.36 551.68 288.61 551.94 288.61 552.32C288.61 552.9 287.8 553.18 286.18 553.18L284.08 552.94H274.22L270.66 553.18C269.66 553.18 269.13 552.91 269.13 552.35C269.131 552.196 269.182 552.046 269.276 551.923C269.37 551.8 269.501 551.712 269.65 551.67C270.617 551.426 271.605 551.269 272.6 551.2C273.804 551.194 274.965 550.754 275.87 549.96C276.44 549.31 276.72 548.02 276.72 546.08L277.29 539.08C277.358 536.291 277.575 533.507 277.94 530.74C278.37 527 278.58 524.39 278.58 522.93V518.73C278.58 517.12 278.41 516.16 278.06 515.86C277.71 515.56 276.51 515.42 274.46 515.42C272.14 515.42 270.98 515.09 270.98 514.42C270.98 513.75 271.66 513.59 272.98 513.59H286.75C287.328 513.529 287.912 513.612 288.45 513.83C288.98 514.455 289.417 515.152 289.75 515.9L303.93 541.56Z" fill="#000000"/>
<path d="M370.93 513.11C379.23 513.11 386.184 515.037 391.79 518.89C397.397 522.744 400.197 527.52 400.19 533.22C400.19 538.654 397.254 543.41 391.38 547.49C385.314 551.641 378.099 553.785 370.75 553.62C362.563 553.62 355.583 551.657 349.81 547.73C344.037 543.804 341.154 539.027 341.16 533.4C341.16 527.66 344.017 522.844 349.73 518.95C355.444 515.057 362.51 513.11 370.93 513.11ZM369.88 514.7C364.44 514.7 360.02 516.294 356.62 519.48C354.932 521.082 353.605 523.026 352.727 525.181C351.849 527.337 351.441 529.655 351.53 531.98C351.492 534.612 351.988 537.223 352.988 539.657C353.989 542.091 355.473 544.297 357.35 546.14C359.16 548.04 361.344 549.544 363.764 550.557C366.183 551.571 368.787 552.073 371.41 552.03C377.177 552.03 381.733 550.03 385.08 546.03C388.16 542.549 389.858 538.059 389.85 533.41C389.916 530.904 389.445 528.412 388.469 526.103C387.493 523.794 386.034 521.72 384.19 520.02C380.305 516.435 375.164 514.524 369.88 514.7Z" fill="#000000"/>
<path d="M413.37 546.94V519.85C413.37 517.523 412.453 516.36 410.62 516.36L409.08 516.53L406.9 516.95C406.2 517.02 405.9 516.79 405.9 516.24C405.9 515.69 407.03 515.24 409.3 514.76C411.4 514.45 412.83 514.25 413.58 514.17C415.322 513.958 417.075 513.841 418.83 513.82C421.53 513.62 424.92 513.53 429.02 513.53C433.283 513.47 437.542 513.784 441.75 514.47C445.068 515.048 448.291 516.078 451.33 517.53C454.645 519.138 457.528 521.513 459.74 524.46C461.697 527.009 462.775 530.125 462.81 533.34C462.772 536.642 461.698 539.85 459.74 542.51C457.59 545.526 454.729 547.965 451.41 549.61C446.783 552.05 441.153 553.27 434.52 553.27L424.98 552.97H418.35C416.52 552.97 414.59 553.03 412.57 553.12L409.3 553.27H407.75C406.57 553.27 405.97 552.99 405.97 552.44C405.97 552.11 406.19 551.86 406.62 551.69C407.409 551.483 408.225 551.399 409.04 551.44C410.82 551.44 411.98 551.15 412.52 550.55C413.06 549.95 413.37 548.76 413.37 546.94ZM422.67 520.42V545.42C422.67 547.62 423.273 549.203 424.48 550.17C425.7 551.17 427.7 551.61 430.48 551.61C436.114 551.765 441.617 549.903 446 546.36C450.253 542.86 452.38 538.593 452.38 533.56C452.425 530.976 451.845 528.42 450.691 526.108C449.537 523.796 447.842 521.797 445.75 520.28C441.31 516.84 435.587 515.12 428.58 515.12C426.2 515.12 424.63 515.46 423.85 516.12C423.07 516.78 422.67 518.26 422.67 520.42Z" fill="#000000"/>
<path d="M475.94 546.72V519.89C475.94 518.12 475.65 516.89 475.09 516.32C474.53 515.75 473.38 515.41 471.65 515.41C469.65 515.41 468.58 515.07 468.58 514.41C468.58 513.75 469.17 513.56 470.36 513.56L471.73 513.73H505.73L507.6 513.56C508.08 513.56 508.37 513.65 508.48 513.85C508.688 514.342 508.774 514.877 508.73 515.41V521.32C508.73 522.08 508.4 522.46 507.73 522.46C507.06 522.46 506.67 522.08 506.19 521.32C505.46 520.072 504.562 518.932 503.52 517.93C502.555 517.225 501.455 516.725 500.29 516.46C496.897 515.683 493.419 515.346 489.94 515.46C487.73 515.46 486.39 515.66 485.94 516.05C485.49 516.44 485.21 517.55 485.21 519.35V528.79C485.21 529.97 485.44 530.69 485.9 530.94C487.227 531.307 488.608 531.439 489.98 531.33C494.24 531.33 497.083 531.053 498.51 530.5C499.937 529.946 501.137 528.613 502.11 526.5C502.172 526.227 502.327 525.985 502.547 525.814C502.768 525.642 503.041 525.553 503.32 525.56C503.97 525.56 504.32 525.85 504.32 526.44L504.16 528.1C504.16 529.01 504.09 530.31 503.96 532.01C503.83 533.71 503.75 534.77 503.75 535.21L503.84 536.87L504 538.46C504 539.29 503.65 539.71 503 539.71C502.35 539.71 501.68 539.2 501.3 538.17C500.54 536.01 499.517 534.636 498.23 534.05C496.943 533.463 494.22 533.166 490.06 533.16C488.694 533.083 487.324 533.173 485.98 533.43C485.52 533.6 485.29 534.14 485.29 535.04V546.09C485.29 548.25 485.85 549.65 486.95 550.3C488.05 550.95 490.38 551.3 493.95 551.3C497.95 551.3 500.81 550.86 502.56 550C504.31 549.14 506.27 547.17 508.42 544.1C508.578 543.878 508.785 543.694 509.024 543.562C509.262 543.431 509.528 543.355 509.8 543.34C509.932 543.315 510.067 543.322 510.195 543.359C510.324 543.397 510.441 543.464 510.539 543.556C510.636 543.647 510.711 543.761 510.756 543.886C510.801 544.012 510.817 544.147 510.8 544.28C510.757 545.067 510.592 545.843 510.31 546.58L509.75 550.06C509.75 551.59 509.57 552.49 509.22 552.74C508.87 552.99 507.64 553.12 505.54 553.12H471.75L470.38 553.3C469.19 553.3 468.6 553 468.6 552.39C468.605 552.201 468.671 552.019 468.788 551.871C468.905 551.723 469.067 551.617 469.25 551.57C470.036 551.343 470.854 551.252 471.67 551.3C473.45 551.3 474.61 551 475.15 550.41C475.69 549.82 475.94 548.53 475.94 546.72Z" fill="#000000"/>
<path d="M550.22 553.03H519.1L517.75 553.2C516.56 553.2 515.97 552.9 515.97 552.29C515.974 552.102 516.04 551.92 516.158 551.772C516.275 551.624 516.437 551.518 516.62 551.47C517.405 551.243 518.224 551.152 519.04 551.2C520.82 551.2 521.98 550.9 522.52 550.31C523.06 549.72 523.33 548.53 523.33 546.72V519.95C523.33 518.18 523.04 516.95 522.48 516.38C521.92 515.81 520.77 515.47 519.04 515.47C517.04 515.47 515.97 515.12 515.97 514.41C515.97 513.7 516.56 513.53 517.75 513.53H521.47L528.47 513.82L534.53 513.53H538.25C539.44 513.53 540.03 513.82 540.03 514.41C540.019 514.595 539.951 514.772 539.834 514.915C539.717 515.059 539.558 515.162 539.38 515.21C538.592 515.427 537.775 515.515 536.96 515.47C535.12 515.47 533.96 515.77 533.4 516.35C532.84 516.93 532.59 518.14 532.59 519.95V545.08C532.59 547.36 533.103 548.95 534.13 549.85C535.156 550.75 536.986 551.204 539.62 551.21C546.146 551.21 551.106 548.907 554.5 544.3C554.637 544.079 554.826 543.894 555.051 543.761C555.276 543.629 555.529 543.553 555.79 543.54C556.49 543.54 556.84 543.874 556.84 544.54L556.6 546C556.17 547.63 555.9 548.69 555.79 549.17C555.658 549.97 555.604 550.78 555.63 551.59C555.63 552.59 554.93 553.04 553.53 553.04H550.21L550.22 553.03Z" fill="#000000"/>
<path d="M576.58 519.95V546.78C576.58 548.55 576.86 549.78 577.43 550.35C578 550.92 579.16 551.27 580.94 551.27C582.94 551.27 584.01 551.62 584.01 552.33C584.01 553.04 583.42 553.21 582.23 553.21H581.75L578.52 552.97H571.81L563.16 553.21H561.75C560.57 553.21 559.97 552.92 559.97 552.33C559.97 551.97 560.19 551.71 560.62 551.53C561.406 551.309 562.224 551.221 563.04 551.27C564.82 551.27 565.98 550.97 566.52 550.38C567.06 549.79 567.33 548.59 567.33 546.78V519.95C567.33 518.18 567.05 516.95 566.48 516.38C565.91 515.81 564.77 515.47 563.04 515.47C561.04 515.47 559.97 515.12 559.97 514.41C559.97 513.7 560.57 513.53 561.75 513.53H562.24L565.47 513.76H572.34L580.83 513.53H582.28C583.47 513.53 584.06 513.82 584.06 514.41C584.051 514.594 583.985 514.771 583.87 514.914C583.755 515.058 583.597 515.162 583.42 515.21C582.629 515.427 581.808 515.514 580.99 515.47C579.16 515.47 577.99 515.77 577.43 516.36C576.87 516.95 576.58 518.14 576.58 519.95Z" fill="#000000"/>
<path d="M636.96 542.97L636.64 523.31C636.64 519.91 636.37 517.753 635.83 516.84C635.29 515.93 634.02 515.47 632.03 515.47C631.002 515.508 629.973 515.438 628.96 515.26C628.42 515.12 628.15 514.87 628.15 514.49C628.15 514.11 628.88 513.76 630.33 513.76H646.42C647.5 513.76 648.04 514.05 648.04 514.64C648.039 514.83 647.975 515.016 647.857 515.166C647.739 515.316 647.575 515.423 647.39 515.47C646.356 515.703 645.3 515.831 644.24 515.85C643.09 515.799 641.951 516.084 640.96 516.67C640.45 517.12 640.2 518.13 640.2 519.67L640.44 552.59C640.44 553.81 639.93 554.42 638.9 554.42C637.845 554.212 636.882 553.677 636.15 552.89L599.37 519.3L599.75 541.2C599.75 545.96 600.113 548.84 600.84 549.84C601.56 550.84 603.68 551.34 607.18 551.34C608.18 551.34 608.72 551.64 608.72 552.23C608.72 552.82 608.02 553.11 606.62 553.11L605 552.94H599.1C596.78 552.94 594.73 553.016 592.95 553.17L589.72 553.35C588.72 553.35 588.19 553.07 588.19 552.52C588.191 552.348 588.251 552.181 588.361 552.048C588.47 551.915 588.621 551.824 588.79 551.79C589.949 551.538 591.126 551.377 592.31 551.31C594.25 551.14 595.41 550.63 595.78 549.78C596.15 548.93 596.35 546.31 596.35 541.91V520.91C596.35 518.55 596.09 517.04 595.58 516.39C595.07 515.74 593.85 515.39 591.9 515.39C591.035 515.427 590.169 515.36 589.32 515.19C588.89 515.05 588.67 514.8 588.67 514.45C588.67 513.86 589.59 513.56 591.42 513.56L598.78 513.74H604.27C604.786 513.697 605.306 513.754 605.8 513.91C606.456 514.323 607.054 514.82 607.58 515.39L636.96 542.97Z" fill="#000000"/>
<path d="M693.75 544.73V539.26C693.816 538.706 693.748 538.145 693.551 537.622C693.354 537.1 693.035 536.633 692.62 536.26C691.86 535.71 690.43 535.43 688.33 535.43C687.438 535.467 686.545 535.397 685.67 535.22C685.18 535.08 684.94 534.8 684.94 534.4C684.94 534 685.67 533.6 686.94 533.6H688.75L699.34 533.96L705.97 533.6H709.36C710.28 533.6 710.74 533.85 710.74 534.33C710.74 534.81 710.51 534.98 710.05 535.16C709.247 535.384 708.412 535.475 707.58 535.43C706.385 535.317 705.183 535.543 704.11 536.08C703.782 536.373 703.53 536.74 703.375 537.151C703.22 537.562 703.167 538.004 703.22 538.44L703.46 542.44L703.54 545.86V546.98C703.587 547.671 703.533 548.365 703.38 549.04C703.07 549.398 702.684 549.681 702.25 549.87C699.454 551.131 696.506 552.022 693.48 552.52C689.922 553.215 686.305 553.57 682.68 553.58C673.58 553.58 666.333 551.657 660.94 547.81C658.519 546.109 656.504 543.892 655.04 541.32C653.644 538.981 652.891 536.314 652.86 533.59C652.914 530.369 654.021 527.254 656.01 524.72C658.32 521.697 661.311 519.261 664.74 517.61C670.673 514.59 678.03 513.077 686.81 513.07C689.58 513.07 692.347 513.264 695.09 513.65C697.87 514.03 699.61 514.47 700.31 514.97C700.472 515.071 700.609 515.208 700.71 515.37C701.065 516.274 701.336 517.208 701.52 518.16C701.804 519.188 701.995 520.239 702.09 521.3C702.09 521.91 701.74 522.3 701.09 522.3C700.44 522.3 699.76 521.86 699.09 520.87C695.85 516.71 691.08 514.63 684.78 514.63C679.328 514.552 674.055 516.579 670.06 520.29C668.108 521.945 666.54 524.006 665.465 526.329C664.391 528.652 663.836 531.181 663.84 533.74C663.801 536.218 664.32 538.674 665.358 540.924C666.397 543.175 667.929 545.162 669.84 546.74C673.84 550.2 678.84 551.93 684.84 551.93C686.413 551.952 687.984 551.815 689.53 551.52C690.565 551.355 691.54 550.924 692.36 550.27C693.287 549.39 693.75 547.544 693.75 544.73Z" fill="#000000"/>
<path d="M720.38 552.92H718.38C717.577 552.921 716.802 552.63 716.2 552.1C715.895 551.877 715.647 551.587 715.473 551.252C715.299 550.917 715.206 550.547 715.2 550.17C715.196 549.72 715.309 549.277 715.528 548.884C715.747 548.491 716.065 548.162 716.45 547.93C717.432 547.322 718.576 547.026 719.73 547.08C720.514 547.043 721.298 547.165 722.034 547.44C722.77 547.715 723.442 548.137 724.01 548.68C724.555 549.23 724.98 549.888 725.259 550.61C725.537 551.333 725.664 552.106 725.63 552.88C725.596 554.755 724.942 556.566 723.77 558.03C722.444 559.761 720.731 561.158 718.77 562.11C718.075 562.504 717.305 562.746 716.51 562.82C715.91 562.82 715.61 562.61 715.61 562.17C715.61 561.73 715.97 561.52 716.67 561.17C718.134 560.53 719.433 559.566 720.47 558.35C721.325 557.374 721.81 556.127 721.84 554.83C721.874 554.608 721.862 554.381 721.807 554.164C721.751 553.947 721.652 553.743 721.516 553.565C721.379 553.386 721.208 553.237 721.013 553.126C720.818 553.016 720.603 552.945 720.38 552.92Z" fill="#000000"/>
<path d="M768.4 519.95V546.78C768.4 548.55 768.68 549.78 769.25 550.35C769.82 550.92 770.99 551.27 772.77 551.27C774.77 551.27 775.84 551.62 775.84 552.33C775.84 553.04 775.25 553.21 774.06 553.21H773.57L770.34 552.97H763.63L754.98 553.21H753.53C752.34 553.21 751.75 552.92 751.75 552.33C751.75 551.97 751.96 551.71 752.4 551.53C753.186 551.308 754.004 551.22 754.82 551.27C756.6 551.27 757.76 550.97 758.3 550.38C758.84 549.79 759.11 548.59 759.11 546.78V519.95C759.11 518.18 758.82 516.95 758.26 516.38C757.7 515.81 756.55 515.47 754.82 515.47C752.77 515.47 751.75 515.12 751.75 514.41C751.75 513.7 752.34 513.53 753.53 513.53H754.01L757.25 513.76H764.12L772.6 513.53H774.06C775.25 513.53 775.84 513.82 775.84 514.41C775.83 514.595 775.761 514.772 775.644 514.915C775.528 515.059 775.369 515.162 775.19 515.21C774.403 515.427 773.585 515.515 772.77 515.47C770.93 515.47 769.77 515.77 769.21 516.36C768.65 516.95 768.4 518.14 768.4 519.95Z" fill="#000000"/>
<path d="M828.75 542.97L828.42 523.31C828.42 519.91 828.15 517.753 827.61 516.84C827.07 515.93 825.81 515.47 823.82 515.47C822.789 515.509 821.756 515.438 820.74 515.26C820.2 515.12 819.93 514.87 819.93 514.49C819.93 514.11 820.66 513.76 822.12 513.76H838.2C839.28 513.76 839.82 514.05 839.82 514.64C839.819 514.831 839.755 515.016 839.637 515.166C839.519 515.317 839.355 515.423 839.17 515.47C838.136 515.704 837.08 515.831 836.02 515.85C834.873 515.8 833.737 516.084 832.75 516.67C832.23 517.12 831.98 518.13 831.98 519.67L832.22 552.59C832.22 553.81 831.71 554.42 830.68 554.42C829.628 554.212 828.669 553.676 827.94 552.89L791.2 519.3L791.52 541.18C791.52 545.94 791.883 548.82 792.61 549.82C793.34 550.82 795.45 551.32 798.96 551.32C799.96 551.32 800.49 551.62 800.49 552.21C800.49 552.8 799.79 553.09 798.39 553.09L796.77 552.92H790.87C788.55 552.92 786.51 553 784.73 553.15L781.5 553.33C780.5 553.33 779.96 553.05 779.96 552.5C779.96 552.326 780.021 552.157 780.132 552.024C780.244 551.89 780.399 551.801 780.57 551.77C781.725 551.517 782.899 551.356 784.08 551.29C786.02 551.117 787.18 550.607 787.56 549.76C787.93 548.92 788.12 546.29 788.12 541.89V520.89C788.12 518.53 787.87 517.02 787.36 516.37C786.85 515.72 785.62 515.37 783.68 515.37C782.812 515.408 781.942 515.341 781.09 515.17C780.66 515.03 780.45 514.78 780.45 514.43C780.45 513.84 781.36 513.54 783.19 513.54L790.55 513.72H796.04C796.559 513.677 797.082 513.735 797.58 513.89C798.232 514.304 798.827 514.802 799.35 515.37L828.75 542.97Z" fill="#000000"/>
<path d="M894.83 543.48L894.1 548.79C894.058 549.305 893.863 549.796 893.54 550.2C892.936 550.663 892.26 551.024 891.54 551.27C889.272 552.078 886.926 552.647 884.54 552.97C881.761 553.405 878.953 553.622 876.14 553.62C868.48 553.62 861.957 552.186 856.57 549.32C853.196 547.579 850.257 545.101 847.97 542.07C845.957 539.544 844.826 536.429 844.75 533.2C844.75 527.54 847.89 522.773 854.17 518.9C860.45 515.027 868.17 513.09 877.33 513.09C879.27 513.09 881.58 513.21 884.33 513.45C886.473 513.611 888.606 513.885 890.72 514.27C891.496 514.355 892.243 514.618 892.9 515.04C893.357 515.501 893.643 516.104 893.71 516.75L894.43 521.17L894.52 521.47C894.545 521.582 894.535 521.699 894.49 521.805C894.445 521.911 894.368 522 894.27 522.06C894.031 522.22 893.748 522.301 893.46 522.29C893.109 522.289 892.764 522.196 892.46 522.02C892.043 521.771 891.662 521.465 891.33 521.11C889.64 518.923 887.432 517.191 884.907 516.068C882.381 514.946 879.616 514.469 876.86 514.68C871.347 514.497 865.962 516.368 861.75 519.93C859.818 521.514 858.269 523.514 857.218 525.781C856.167 528.047 855.642 530.522 855.68 533.02C855.644 535.567 856.161 538.092 857.197 540.42C858.233 542.747 859.763 544.822 861.68 546.5C865.699 550.175 870.986 552.15 876.43 552.01C879.374 552.101 882.293 551.451 884.92 550.12C887.651 548.481 889.995 546.27 891.79 543.64C891.986 543.289 892.266 542.993 892.605 542.777C892.943 542.56 893.33 542.431 893.73 542.4C894.56 542.42 894.94 542.77 894.83 543.48Z" fill="#000000"/>
<path d="M906.31 547.08C907.48 547.05 908.627 547.401 909.58 548.08C909.978 548.328 910.308 548.671 910.542 549.077C910.776 549.484 910.906 549.941 910.92 550.41C910.911 550.871 910.788 551.323 910.561 551.724C910.334 552.126 910.01 552.465 909.62 552.71C908.673 553.364 907.54 553.694 906.39 553.65C905.266 553.687 904.16 553.357 903.24 552.71C902.838 552.448 902.508 552.089 902.28 551.666C902.053 551.243 901.936 550.77 901.94 550.29C901.954 549.838 902.081 549.397 902.308 549.006C902.534 548.615 902.855 548.286 903.24 548.05C904.128 547.397 905.208 547.056 906.31 547.08Z" fill="#000000"/>
<path d="M363.14 122.22H345.34V150.05H363.14V122.22Z" fill="#000000"/>
<path d="M389.21 122.22H371.41V150.05H389.21V122.22Z" fill="#000000"/>
<path d="M363.14 156.07H345.34V183.9H363.14V156.07Z" fill="#000000"/>
<path d="M389.21 156.07H371.41V183.9H389.21V156.07Z" fill="#000000"/>
<path d="M638.63 88.1904H620.83V116.02H638.63V88.1904Z" fill="#000000"/>
<path d="M664.71 88.1904H646.91V116.02H664.71V88.1904Z" fill="#000000"/>
<path d="M638.63 122.03H620.83V149.86H638.63V122.03Z" fill="#000000"/>
<path d="M664.71 122.03H646.91V149.86H664.71V122.03Z" fill="#000000"/>
<mask id="mask5_57_1381" style="mask-type:luminance" maskUnits="userSpaceOnUse" x="756" y="30" width="240" height="236">
<path d="M995.57 148.03C995.57 206.37 952.14 254.77 895.25 263.9C891.032 264.587 886.779 265.041 882.51 265.26L756.68 134.2C757.177 130.03 757.901 125.89 758.85 121.8C770.99 69.5996 818.75 30.5996 875.75 30.5996C941.9 30.5996 995.57 83.1996 995.57 148.03Z" fill="white"/>
</mask>
<g mask="url(#mask5_57_1381)">
<path d="M883.6 30.5996L756.68 31.6896V30.5996H883.6Z" fill="#000000"/>
<path d="M995.56 32.1296L756.68 34.1896V31.6896L883.6 30.5996H995.56V32.1296Z" fill="#000000"/>
<path d="M995.56 34.6399L756.68 36.6999V34.1899L995.56 32.1299V34.6399Z" fill="#000000"/>
<path d="M995.56 37.1396L756.68 39.1996V36.6996L995.56 34.6396V37.1396Z" fill="#000000"/>
<path d="M995.56 39.6497L756.68 41.6996V39.1996L995.56 37.1396V39.6497Z" fill="#000000"/>
<path d="M995.56 42.1494L756.68 44.2094V41.6994L995.56 39.6494V42.1494Z" fill="#000000"/>
<path d="M995.56 44.6494L756.68 46.7094V44.2094L995.56 42.1494V44.6494Z" fill="#000000"/>
<path d="M995.56 47.1594L756.68 49.2194V46.7094L995.56 44.6494V47.1594Z" fill="#000000"/>
<path d="M995.56 49.6592L756.68 51.7192V49.2192L995.56 47.1592V49.6592Z" fill="#000000"/>
<path d="M995.56 52.1592L756.68 54.2192V51.7192L995.56 49.6592V52.1592Z" fill="#000000"/>
<path d="M995.56 54.6692L756.68 56.7292V54.2192L995.56 52.1592V54.6692Z" fill="#000000"/>
<path d="M995.56 57.1699L756.68 59.2299V56.7299L995.56 54.6699V57.1699Z" fill="#000000"/>
<path d="M995.56 59.6699L756.68 61.7299V59.2299L995.56 57.1699V59.6699Z" fill="#000000"/>
<path d="M995.56 62.1799L756.68 64.2399V61.7299L995.56 59.6699V62.1799Z" fill="#000000"/>
<path d="M995.56 64.6797L756.68 66.7397V64.2397L995.56 62.1797V64.6797Z" fill="#000000"/>
<path d="M995.56 67.1797L756.68 69.2397V66.7397L995.56 64.6797V67.1797Z" fill="#000000"/>
<path d="M995.56 69.6897L756.68 71.7497V69.2397L995.56 67.1797V69.6897Z" fill="#000000"/>
<path d="M995.56 72.1895L756.68 74.2495V71.7495L995.56 69.6895V72.1895Z" fill="#000000"/>
<path d="M995.56 74.6895L756.68 76.7495V74.2495L995.56 72.1895V74.6895Z" fill="#000000"/>
<path d="M995.56 77.1994L756.68 79.2595V76.7495L995.56 74.6895V77.1994Z" fill="#000000"/>
<path d="M995.56 79.6992L756.68 81.7592V79.2592L995.56 77.1992V79.6992Z" fill="#000000"/>
<path d="M995.56 82.1992L756.68 84.2692V81.7592L995.56 79.6992V82.1992Z" fill="#000000"/>
<path d="M995.56 84.7092L756.68 86.7692V84.2692L995.56 82.1992V84.7092Z" fill="#000000"/>
<path d="M995.56 87.21L756.68 89.27V86.77L995.56 84.71V87.21Z" fill="#000000"/>
<path d="M995.56 89.72L756.68 91.78V89.27L995.56 87.21V89.72Z" fill="#000000"/>
<path d="M995.56 92.2197L756.68 94.2797V91.7797L995.56 89.7197V92.2197Z" fill="#000000"/>
<path d="M995.56 94.7197L756.68 96.7797V94.2797L995.56 92.2197V94.7197Z" fill="#000000"/>
<path d="M995.56 97.2297L756.68 99.2897V96.7797L995.56 94.7197V97.2297Z" fill="#000000"/>
<path d="M995.56 99.7295L756.68 101.789V99.2895L995.56 97.2295V99.7295Z" fill="#000000"/>
<path d="M995.56 102.229L756.68 104.289V101.789L995.56 99.7295V102.229Z" fill="#000000"/>
<path d="M995.56 104.739L756.68 106.799V104.289L995.56 102.229V104.739Z" fill="#000000"/>
<path d="M995.56 107.239L756.68 109.299V106.799L995.56 104.739V107.239Z" fill="#000000"/>
<path d="M995.56 109.749L756.68 111.799V109.299L995.56 107.239V109.749Z" fill="#000000"/>
<path d="M995.56 112.25L756.68 114.31V111.8L995.56 109.75V112.25Z" fill="#000000"/>
<path d="M995.56 114.75L756.68 116.81V114.31L995.56 112.25V114.75Z" fill="#000000"/>
<path d="M995.56 117.25L756.68 119.31V116.81L995.56 114.75V117.25Z" fill="#000000"/>
<path d="M995.56 119.76L756.68 121.82V119.31L995.56 117.25V119.76Z" fill="#000000"/>
<path d="M995.56 122.26L756.68 124.32V121.82L995.56 119.76V122.26Z" fill="#000000"/>
<path d="M995.56 124.77L756.68 126.83V124.32L995.56 122.26V124.77Z" fill="#000000"/>
<path d="M995.56 127.27L756.68 129.33V126.83L995.56 124.77V127.27Z" fill="#000000"/>
<path d="M995.56 129.77L756.68 131.83V129.33L995.56 127.27V129.77Z" fill="#000000"/>
<path d="M995.56 132.28L756.68 134.34V131.83L995.56 129.77V132.28Z" fill="#000000"/>
<path d="M995.56 134.779L756.68 136.839V134.339L995.56 132.279V134.779Z" fill="#000000"/>
<path d="M995.56 137.279L756.68 139.339V136.839L995.56 134.779V137.279Z" fill="#000000"/>
<path d="M995.56 139.789L756.68 141.849V139.339L995.56 137.279V139.789Z" fill="#000000"/>
<path d="M995.56 142.29L756.68 144.35V141.85L995.56 139.79V142.29Z" fill="#000000"/>
<path d="M995.56 144.79L756.68 146.85V144.35L995.56 142.29V144.79Z" fill="#000000"/>
<path d="M995.56 147.3L756.68 149.36V146.85L995.56 144.79V147.3Z" fill="#000000"/>
<path d="M995.56 149.8L756.68 151.86V149.36L995.56 147.3V149.8Z" fill="#000000"/>
<path d="M995.56 152.31L756.68 154.37V151.86L995.56 149.8V152.31Z" fill="#000000"/>
<path d="M995.56 154.81L756.68 156.87V154.37L995.56 152.31V154.81Z" fill="#000000"/>
<path d="M995.56 157.31L756.68 159.37V156.87L995.56 154.81V157.31Z" fill="#000000"/>
<path d="M995.56 159.82L756.68 161.88V159.37L995.56 157.31V159.82Z" fill="#000000"/>
<path d="M995.56 162.319L756.68 164.379V161.879L995.56 159.819V162.319Z" fill="#000000"/>
<path d="M995.56 164.819L756.68 166.879V164.379L995.56 162.319V164.819Z" fill="#000000"/>
<path d="M995.56 167.329L756.68 169.389V166.879L995.56 164.819V167.329Z" fill="#000000"/>
<path d="M995.56 169.83L756.68 171.89V169.39L995.56 167.33V169.83Z" fill="#000000"/>
<path d="M995.56 172.33L756.68 174.39V171.89L995.56 169.83V172.33Z" fill="#000000"/>
<path d="M995.56 174.84L756.68 176.9V174.39L995.56 172.33V174.84Z" fill="#000000"/>
<path d="M995.56 177.34L756.68 179.4V176.9L995.56 174.84V177.34Z" fill="#000000"/>
<path d="M995.56 179.84L756.68 181.9V179.4L995.56 177.34V179.84Z" fill="#000000"/>
<path d="M995.56 182.35L756.68 184.41V181.9L995.56 179.84V182.35Z" fill="#000000"/>
<path d="M995.56 184.85L756.68 186.91V184.41L995.56 182.35V184.85Z" fill="#000000"/>
<path d="M995.56 187.35L756.68 189.41V186.91L995.56 184.85V187.35Z" fill="#000000"/>
<path d="M995.56 189.86L756.68 191.92V189.41L995.56 187.35V189.86Z" fill="#000000"/>
<path d="M995.56 192.359L756.68 194.419V191.919L995.56 189.859V192.359Z" fill="#000000"/>
<path d="M995.56 194.869L756.68 196.929V194.419L995.56 192.359V194.869Z" fill="#000000"/>
<path d="M995.56 197.369L756.68 199.429V196.929L995.56 194.869V197.369Z" fill="#000000"/>
<path d="M995.56 199.869L756.68 201.929V199.429L995.56 197.369V199.869Z" fill="#000000"/>
<path d="M995.56 202.379L756.68 204.439V201.929L995.56 199.869V202.379Z" fill="#000000"/>
<path d="M995.56 204.88L756.68 206.94V204.44L995.56 202.38V204.88Z" fill="#000000"/>
<path d="M995.56 207.38L756.68 209.44V206.94L995.56 204.88V207.38Z" fill="#000000"/>
<path d="M995.56 209.89L756.68 211.95V209.44L995.56 207.38V209.89Z" fill="#000000"/>
<path d="M995.56 212.39L756.68 214.45V211.95L995.56 209.89V212.39Z" fill="#000000"/>
<path d="M995.56 214.89L756.68 216.95V214.45L995.56 212.39V214.89Z" fill="#000000"/>
<path d="M995.56 217.4L756.68 219.46V216.95L995.56 214.89V217.4Z" fill="#000000"/>
<path d="M995.56 219.899L756.68 221.959V219.459L995.56 217.399V219.899Z" fill="#000000"/>
<path d="M995.56 222.409L756.68 224.459V221.959L995.56 219.899V222.409Z" fill="#000000"/>
<path d="M995.56 224.909L756.68 226.969V224.459L995.56 222.409V224.909Z" fill="#000000"/>
<path d="M995.56 227.409L756.68 229.469V226.969L995.56 224.909V227.409Z" fill="#000000"/>
<path d="M995.56 229.919L756.68 231.969V229.469L995.56 227.409V229.919Z" fill="#000000"/>
<path d="M995.56 232.42L756.68 234.48V231.97L995.56 229.92V232.42Z" fill="#000000"/>
<path d="M995.56 234.92L756.68 236.98V234.48L995.56 232.42V234.92Z" fill="#000000"/>
<path d="M995.56 237.43L756.68 239.49V236.98L995.56 234.92V237.43Z" fill="#000000"/>
<path d="M995.56 239.93L756.68 241.99V239.49L995.56 237.43V239.93Z" fill="#000000"/>
<path d="M995.56 242.43L756.68 244.49V241.99L995.56 239.93V242.43Z" fill="#000000"/>
<path d="M995.56 244.94L756.68 247V244.49L995.56 242.43V244.94Z" fill="#000000"/>
<path d="M995.56 247.439L756.68 249.499V246.999L995.56 244.939V247.439Z" fill="#000000"/>
<path d="M995.56 249.939L756.68 251.999V249.499L995.56 247.439V249.939Z" fill="#000000"/>
<path d="M995.56 252.449L756.68 254.509V251.999L995.56 249.939V252.449Z" fill="#000000"/>
<path d="M995.56 254.949L756.68 257.009V254.509L995.56 252.449V254.949Z" fill="#000000"/>
<path d="M995.56 257.449L756.68 259.509V257.009L995.56 254.949V257.449Z" fill="#000000"/>
<path d="M756.68 259.509L995.56 257.449V265.259H756.68V259.509Z" fill="#000000"/>
</g>
<path d="M1071.75 273.46V283.6H900.11L898.62 282.04L882.51 265.26L756.68 134.23L642.23 15.04L488.28 192.78L528.26 245.91L520.16 252L368.28 50.22L168.8 283.6H0V273.46H164.13L272.51 146.65V78.9H302.76V111.27L368.78 34.03L482.04 184.49L641.85 0L758.85 121.84L895.25 263.89L904.43 273.46H1071.75Z" fill="#000000"/>
<path d="M279.99 286.65L279.4 291.65C279.367 292.129 279.209 292.591 278.94 292.99C278.456 293.417 277.901 293.755 277.3 293.99C275.485 294.75 273.584 295.291 271.64 295.6C269.387 296.014 267.101 296.222 264.81 296.22C258.59 296.22 253.287 294.86 248.9 292.14C246.073 290.414 243.678 288.064 241.9 285.27C240.226 282.786 239.303 279.874 239.24 276.88C239.24 271.546 241.794 267.03 246.9 263.33C252.007 259.63 258.284 257.796 265.73 257.83C267.31 257.83 269.19 257.94 271.38 258.16C273.124 258.316 274.857 258.576 276.57 258.94C277.216 259.026 277.829 259.278 278.35 259.67C278.731 260.129 278.961 260.695 279.01 261.29L279.6 265.48L279.67 265.76C279.692 265.862 279.684 265.969 279.649 266.068C279.614 266.166 279.552 266.254 279.47 266.32C279.284 266.47 279.049 266.548 278.81 266.54C278.528 266.535 278.253 266.448 278.02 266.29C277.673 266.05 277.363 265.76 277.1 265.43C275.715 263.488 273.936 261.859 271.88 260.65C269.834 259.693 267.588 259.24 265.33 259.33C263.048 259.274 260.779 259.689 258.664 260.549C256.55 261.409 254.635 262.696 253.04 264.33C251.423 265.958 250.153 267.897 249.306 270.03C248.458 272.163 248.052 274.445 248.11 276.74C248 281.475 249.76 286.063 253.01 289.51C254.521 291.186 256.374 292.52 258.444 293.42C260.514 294.321 262.753 294.767 265.01 294.73C267.435 294.809 269.83 294.187 271.91 292.94C274.194 291.319 276.101 289.225 277.5 286.8C277.98 286.01 278.5 285.62 279.07 285.62C279.64 285.62 280.08 285.98 279.99 286.65Z" fill="#000000"/>
<path d="M316.75 282.86L314.19 289.48C313.82 290.329 313.58 291.229 313.48 292.15C313.48 293.28 314.68 293.83 317.1 293.83C319.05 293.83 320.02 294.16 320.02 294.83C320.02 295.5 319.38 295.67 318.1 295.67H303.42C302.61 295.67 302.21 295.36 302.21 294.75C302.21 294.14 302.98 293.88 304.52 293.75C305.588 293.752 306.644 293.516 307.61 293.06C308.459 292.305 309.16 291.4 309.68 290.39C310.15 289.51 310.86 288.13 311.81 286.28C313.143 283.613 314.257 281.336 315.15 279.45L320.36 268.31L321.81 265.17L323.81 260.91L324.81 258.63C325.28 257.49 325.57 256.85 325.66 256.69C325.768 256.461 325.94 256.268 326.154 256.133C326.369 255.999 326.617 255.928 326.87 255.93C327.062 255.932 327.251 255.984 327.417 256.08C327.583 256.177 327.722 256.314 327.82 256.48C328.304 257.291 328.722 258.141 329.07 259.02L331.26 263.76L343.14 287.38C344.021 289.335 345.133 291.178 346.45 292.87C347.09 293.48 348.45 293.87 350.45 294.14C351.16 294.21 351.51 294.51 351.51 295.02C351.51 295.53 350.95 295.9 349.81 295.9L348.38 295.66H337.08C335.61 295.77 334.26 295.84 333.02 295.9H332.17C330.94 295.9 330.32 295.62 330.32 295.06C330.32 294.5 331.24 294.06 333.09 293.85C334.85 293.85 335.73 293.39 335.73 292.46C335.672 291.815 335.503 291.186 335.23 290.6L331.94 283.2C331.698 282.6 331.318 282.065 330.83 281.64C330.195 281.388 329.51 281.289 328.83 281.35H319.65C318.978 281.299 318.303 281.356 317.65 281.52C317.4 281.59 317.12 282.05 316.75 282.86ZM323.59 266.69L318.91 277.2L318.56 278.37C318.544 278.476 318.565 278.585 318.617 278.679C318.669 278.773 318.751 278.847 318.85 278.89C319.362 279.001 319.887 279.042 320.41 279.01H327.67C328.81 279.01 329.38 278.87 329.38 278.6C329.319 278.186 329.176 277.788 328.96 277.43L323.59 266.69Z" fill="#000000"/>
<path d="M404.67 296.2H374.38L373.05 296.37C371.89 296.37 371.31 296.08 371.31 295.51C371.317 295.329 371.382 295.156 371.496 295.015C371.609 294.875 371.765 294.775 371.94 294.73C372.707 294.513 373.504 294.426 374.3 294.47C376.04 294.47 377.16 294.19 377.69 293.63C378.22 293.07 378.47 291.94 378.47 290.23V264.84C378.47 263.17 378.2 262.04 377.65 261.47C377.1 260.9 375.98 260.6 374.3 260.6C372.3 260.6 371.3 260.27 371.3 259.6C371.3 258.93 371.88 258.76 373.04 258.76H376.65L383.5 259.04L389.4 258.76H393.02C394.17 258.76 394.75 259.04 394.75 259.6C394.75 259.933 394.54 260.183 394.12 260.35C393.352 260.561 392.555 260.646 391.76 260.6C389.98 260.6 388.82 260.88 388.3 261.44C387.78 262 387.51 263.13 387.51 264.84V288.67C387.51 290.816 388.01 292.323 389.01 293.19C390.01 294.04 391.79 294.47 394.36 294.47C400.7 294.47 405.523 292.29 408.83 287.93C408.967 287.717 409.153 287.54 409.372 287.413C409.591 287.286 409.837 287.213 410.09 287.2C410.77 287.2 411.09 287.52 411.09 288.14L410.86 289.52C410.44 291.07 410.18 292.07 410.07 292.52C409.943 293.276 409.89 294.043 409.91 294.81C409.91 295.73 409.243 296.19 407.91 296.19H404.68L404.67 296.2Z" fill="#000000"/>
<path d="M448.21 264.2V289.63C448.089 290.801 448.33 291.981 448.9 293.01C449.36 293.59 450.31 293.88 451.76 293.88C453.42 293.88 454.25 294.21 454.25 294.88C454.25 295.55 453.77 295.72 452.81 295.72H452.41L449.78 295.5H444.33L437.33 295.72H436.15C435.19 295.72 434.71 295.44 434.71 294.88C434.71 294.717 434.76 294.558 434.853 294.424C434.945 294.29 435.077 294.187 435.23 294.13C435.874 293.916 436.553 293.831 437.23 293.88C438.68 293.88 439.62 293.6 440.06 293.04C440.611 291.994 440.841 290.807 440.72 289.63V264.2C440.838 263.03 440.597 261.851 440.03 260.82C439.57 260.24 438.63 259.95 437.23 259.95C435.57 259.95 434.74 259.62 434.74 258.95C434.74 258.28 435.22 258.11 436.18 258.11H436.58L439.2 258.33H444.75L451.66 258.11H452.84C453.8 258.11 454.28 258.39 454.28 258.95C454.28 259.113 454.23 259.273 454.137 259.407C454.044 259.541 453.913 259.643 453.76 259.7C453.116 259.915 452.437 260 451.76 259.95C450.27 259.95 449.3 260.23 448.86 260.79C448.312 261.838 448.086 263.024 448.21 264.2Z" fill="#000000"/>
<path d="M486.83 289.78V264.4C486.83 262.72 486.56 261.6 486.03 261.02C485.5 260.44 484.42 260.16 482.8 260.16C480.88 260.16 479.92 259.81 479.92 259.16C479.92 258.51 480.47 258.3 481.59 258.3L482.88 258.46H513.01L515.9 258.3C516.287 258.262 516.678 258.316 517.04 258.46C517.155 258.577 517.242 258.719 517.294 258.875C517.346 259.031 517.362 259.197 517.34 259.36V265.73C517.34 266.48 517.01 266.85 516.34 266.85C516.153 266.855 515.967 266.82 515.795 266.747C515.622 266.675 515.467 266.567 515.34 266.43C514.729 265.667 514.184 264.855 513.71 264C513.149 262.955 512.234 262.143 511.13 261.71C509.52 261.117 507.839 260.74 506.13 260.59C503.963 260.331 501.782 260.2 499.6 260.2C498.468 260.087 497.326 260.287 496.3 260.78C495.987 261.108 495.753 261.502 495.614 261.933C495.476 262.364 495.437 262.821 495.5 263.27V271.37C495.5 273.27 495.72 274.37 496.16 274.59C496.6 274.81 498.57 274.95 502.09 274.95C504.85 274.95 506.77 274.66 507.87 274.08C509.218 273.259 510.237 271.993 510.75 270.5C510.838 270.218 511.012 269.971 511.246 269.792C511.481 269.613 511.765 269.511 512.06 269.5C512.72 269.5 513.06 269.82 513.06 270.45L512.83 273.45L512.61 276.3L512.76 279.3L513.06 282.2C513.078 282.336 513.065 282.473 513.021 282.603C512.977 282.733 512.904 282.85 512.807 282.947C512.71 283.044 512.593 283.117 512.463 283.161C512.333 283.205 512.195 283.218 512.06 283.2C511.814 283.188 511.574 283.115 511.363 282.988C511.152 282.86 510.975 282.682 510.85 282.47V282.25L510.55 281.47L510.32 280.68L510.01 279.9C509.2 277.78 506.32 276.72 501.39 276.72C498.49 276.72 496.8 276.84 496.32 277.08C495.83 277.32 495.59 278.13 495.59 279.51V289.74C495.571 290.458 495.598 291.176 495.67 291.89C495.76 292.239 495.944 292.557 496.2 292.81C496.666 293.241 497.218 293.568 497.819 293.772C498.421 293.975 499.058 294.049 499.69 293.99C500.506 293.944 501.325 294.019 502.12 294.21C502.294 294.253 502.449 294.353 502.56 294.494C502.671 294.636 502.731 294.81 502.73 294.99C502.73 295.55 502.17 295.83 501.06 295.83H497.57L491.27 295.55L482.99 295.83H481.63C480.51 295.83 479.96 295.55 479.96 294.99C479.965 294.817 480.027 294.65 480.135 294.515C480.243 294.38 480.392 294.283 480.56 294.24C481.3 294.029 482.071 293.945 482.84 293.99C484.513 293.99 485.603 293.71 486.11 293.15C486.57 292.63 486.83 291.5 486.83 289.78Z" fill="#000000"/>
<path d="M566.96 258.53C574.18 258.53 580.227 260.357 585.1 264.01C589.973 267.664 592.41 272.19 592.41 277.59C592.41 282.73 589.857 287.24 584.75 291.12C579.591 295.008 573.278 297.053 566.82 296.93C559.687 296.93 553.617 295.067 548.61 291.34C543.603 287.614 541.093 283.087 541.08 277.76C541.08 272.32 543.567 267.757 548.54 264.07C553.513 260.384 559.653 258.537 566.96 258.53ZM566.05 260.04C563.918 259.956 561.791 260.316 559.805 261.095C557.819 261.875 556.016 263.058 554.51 264.57C551.557 267.59 550.08 271.54 550.08 276.42C549.984 281.376 551.799 286.178 555.15 289.83C556.656 291.599 558.532 293.017 560.645 293.983C562.758 294.949 565.057 295.439 567.38 295.42C569.674 295.506 571.955 295.032 574.025 294.039C576.094 293.046 577.891 291.563 579.26 289.72C581.985 286.318 583.451 282.079 583.41 277.72C583.483 275.383 583.085 273.055 582.24 270.875C581.395 268.695 580.119 266.707 578.49 265.03C576.874 263.384 574.934 262.09 572.793 261.232C570.652 260.373 568.356 259.967 566.05 260.04Z" fill="#000000"/>
<path d="M617.65 258.26H618.11L621.11 258.48H634.24L640.24 258.26C645.166 258.26 649.033 259.096 651.84 260.77C654.646 262.443 656.046 264.736 656.04 267.65C656.04 272.423 652.3 275.423 644.82 276.65C646.395 277.445 647.765 278.595 648.82 280.01L656.66 290.2C657.269 291.566 658.308 292.696 659.619 293.418C660.929 294.14 662.439 294.414 663.92 294.2C664.68 294.266 665.06 294.546 665.06 295.04C665.06 295.533 664.68 295.793 663.92 295.82H662.69C661.056 295.666 658.843 295.59 656.05 295.59H651.85C651.328 295.628 650.806 295.535 650.33 295.32C649.8 294.908 649.334 294.42 648.95 293.87L639.18 280.38C638.579 279.437 637.785 278.632 636.85 278.02C635.73 277.663 634.553 277.521 633.38 277.6C632.908 277.55 632.432 277.626 632 277.82C631.8 277.97 631.7 278.35 631.7 278.94V289.73C631.7 291.4 631.96 292.53 632.5 293.11C633.04 293.69 634.14 293.98 635.82 293.98C637.75 293.98 638.72 294.31 638.72 294.98C638.72 295.65 638.16 295.82 637.04 295.82H636.58L633.53 295.59H627.19L619.02 295.82H617.65C616.53 295.82 615.97 295.54 615.97 294.98C615.976 294.805 616.039 294.638 616.149 294.502C616.259 294.367 616.41 294.271 616.58 294.23C617.323 294.018 618.098 293.933 618.87 293.98C620.55 293.98 621.64 293.69 622.15 293.13C622.66 292.57 622.92 291.43 622.92 289.71V264.25C622.92 262.57 622.65 261.44 622.11 260.86C621.57 260.28 620.49 259.99 618.87 259.99C616.93 259.99 615.97 259.68 615.97 258.99C615.97 258.3 616.53 258.26 617.65 258.26ZM631.75 263.85V273.91C631.75 274.99 631.92 275.62 632.28 275.81C633.457 276.072 634.666 276.163 635.87 276.08C643.203 276.08 646.87 273.566 646.87 268.54C646.912 267.332 646.661 266.131 646.139 265.041C645.616 263.951 644.838 263.004 643.87 262.28C641.87 260.753 639.12 259.99 635.62 259.99C634.04 259.99 633 260.23 632.49 260.72C631.98 261.21 631.75 262.2 631.75 263.85Z" fill="#000000"/>
<path d="M730.45 286.2L730.15 267.56C730.15 264.333 729.9 262.29 729.4 261.43C728.9 260.56 727.73 260.13 725.88 260.13C724.926 260.165 723.97 260.098 723.03 259.93C722.53 259.8 722.28 259.56 722.28 259.2C722.28 258.84 722.95 258.51 724.28 258.51H739.2C740.2 258.51 740.7 258.79 740.7 259.35C740.701 259.528 740.643 259.701 740.534 259.843C740.426 259.984 740.273 260.085 740.1 260.13C739.14 260.357 738.157 260.478 737.17 260.49C736.115 260.444 735.07 260.716 734.17 261.27C733.69 261.7 733.46 262.65 733.46 264.14L733.68 295.34C733.68 296.5 733.21 297.07 732.26 297.07C731.276 296.873 730.382 296.364 729.71 295.62L695.61 263.76L695.91 284.5C695.91 289.01 696.25 291.73 696.91 292.69C697.57 293.65 699.55 294.11 702.79 294.11C703.79 294.11 704.22 294.39 704.22 294.95C704.22 295.51 703.57 295.79 702.22 295.79L700.72 295.62H695.25C693.1 295.62 691.25 295.69 689.55 295.84L686.55 296.01C685.55 296.01 685.12 295.75 685.12 295.23C685.119 295.066 685.174 294.907 685.276 294.78C685.378 294.652 685.521 294.564 685.68 294.53C686.754 294.295 687.843 294.145 688.94 294.08C690.74 293.92 691.82 293.43 692.17 292.63C692.52 291.83 692.69 289.34 692.69 285.17V265.2C692.69 262.97 692.45 261.54 691.98 260.93C691.51 260.32 690.37 260.01 688.57 260.01C687.765 260.047 686.958 259.98 686.17 259.81C685.77 259.68 685.57 259.45 685.57 259.11C685.57 258.55 686.42 258.27 688.12 258.27L694.94 258.44H700.03C700.513 258.401 700.998 258.455 701.46 258.6C702.066 258.995 702.618 259.47 703.1 260.01L730.45 286.2Z" fill="#000000"/>
<path d="M779.45 264.52V289.94C779.321 291.123 779.588 292.315 780.21 293.33C780.72 293.9 781.77 294.19 783.36 294.19C785.19 294.19 786.11 294.53 786.11 295.19C786.11 295.85 785.58 296.03 784.52 296.03H784.08L781.19 295.8H775.19L767.44 296.03H766.14C765.07 296.03 764.55 295.75 764.55 295.19C764.553 295.018 764.611 294.852 764.716 294.715C764.82 294.578 764.965 294.478 765.13 294.43C765.833 294.222 766.567 294.138 767.3 294.18C768.89 294.18 769.93 293.9 770.41 293.34C770.89 292.78 771.13 291.65 771.13 289.93V264.52C771.259 263.337 770.992 262.144 770.37 261.13C769.87 260.56 768.84 260.27 767.3 260.27C765.46 260.27 764.55 259.93 764.55 259.27C764.55 258.61 765.07 258.43 766.14 258.43H766.57L769.47 258.66H775.62L783.22 258.43H784.53C785.59 258.43 786.12 258.71 786.12 259.27C786.116 259.442 786.058 259.608 785.954 259.744C785.85 259.881 785.705 259.981 785.54 260.03C784.836 260.235 784.102 260.32 783.37 260.28C781.73 260.28 780.66 260.56 780.18 261.12C779.7 261.68 779.45 262.8 779.45 264.52Z" fill="#000000"/>
<path d="M822.54 283.57L819.87 289.91C819.49 290.719 819.24 291.583 819.13 292.47C819.13 293.54 820.39 294.08 822.91 294.08C824.91 294.08 825.91 294.39 825.91 295C825.91 295.61 825.24 295.81 823.91 295.81H808.63C807.79 295.81 807.37 295.52 807.37 294.93C807.37 294.34 808.17 294.09 809.78 293.93C810.886 293.937 811.98 293.708 812.99 293.26C813.865 292.557 814.596 291.691 815.14 290.71C815.633 289.856 816.373 288.543 817.36 286.77C818.74 284.216 819.9 282.036 820.84 280.23L826.26 269.56L827.76 266.56L829.76 262.47L830.76 260.28C831.25 259.2 831.55 258.58 831.65 258.43C831.77 258.204 831.95 258.015 832.171 257.886C832.392 257.757 832.644 257.693 832.9 257.7C833.097 257.703 833.29 257.753 833.464 257.845C833.637 257.937 833.787 258.069 833.9 258.23C834.399 259.005 834.831 259.821 835.19 260.67L837.55 265.2L849.91 287.84C850.833 289.729 851.989 291.496 853.35 293.1C854.01 293.68 855.41 294.1 857.53 294.31C858.27 294.383 858.64 294.663 858.64 295.15C858.64 295.71 858.05 296 856.86 296L855.38 295.77H843.62C842.09 295.87 840.69 295.94 839.4 296H838.52C837.23 296 836.59 295.73 836.59 295.19C836.59 294.65 837.59 294.19 839.48 294.04C841.37 293.89 842.22 293.6 842.22 292.7C842.157 292.08 841.981 291.476 841.7 290.92L838.29 283.81C838.036 283.222 837.645 282.705 837.15 282.3C836.474 282.06 835.755 281.965 835.04 282.02H825.5C824.806 281.974 824.108 282.032 823.43 282.19C823.18 282.34 822.88 282.79 822.54 283.57ZM829.65 268.07L824.75 278.2L824.39 279.32C824.374 279.424 824.394 279.53 824.447 279.621C824.5 279.712 824.582 279.782 824.68 279.82C825.216 279.926 825.764 279.963 826.31 279.93H833.86C835.04 279.93 835.63 279.8 835.63 279.54C835.568 279.14 835.421 278.758 835.2 278.42L829.65 268.07Z" fill="#000000"/>
</g>
<defs>
<clipPath id="clip0_57_1381">
<rect width="1077.57" height="562.82" fill="white"/>
</clipPath>
</defs>
</svg>